# Blender 3.5.0
# www.blender.org
mtllib Body.mtl
o 立方体.001
v 0.000000 0.656044 0.274144
v 0.000000 0.625133 -0.016203
v 0.000000 0.196431 -0.154123
v 0.000000 0.198263 0.312302
v 0.000000 0.334810 -0.131533
v 0.000000 0.414180 0.382514
v 0.000000 0.694203 0.131260
v 0.000000 0.666729 0.051423
v 0.000000 0.694203 0.242132
v 0.000000 0.014819 0.312302
v 0.000000 0.049093 -0.137089
v 0.000000 0.466817 -0.086754
v 0.000000 0.513489 0.350461
v 0.000000 0.265621 -0.142828
v 0.000000 0.306221 0.379461
v 0.302100 0.555001 -0.016203
v 0.341801 0.584510 0.286863
v 0.233292 0.196431 -0.154123
v 0.208641 0.198263 0.294474
v 0.314483 0.334810 -0.131533
v 0.307089 0.414180 0.341621
v 0.170901 0.573317 -0.016203
v 0.170901 0.196431 -0.154123
v 0.170901 0.602826 0.286863
v 0.120451 0.198263 0.312302
v 0.170901 0.414180 0.382514
v 0.170901 0.334810 -0.131533
v 0.341801 0.609949 0.131260
v 0.216356 0.190626 0.131260
v 0.341801 0.414180 0.131260
v 0.170901 0.628265 0.131260
v 0.170901 0.600791 0.051423
v 0.341801 0.582475 0.051423
v 0.258459 0.190626 -0.043210
v 0.341801 0.414180 -0.043210
v 0.341801 0.609949 0.242132
v 0.214997 0.190626 0.227620
v 0.341801 0.414180 0.305730
v 0.170901 0.628265 0.242132
v 0.207623 0.029846 -0.137089
v 0.192368 0.019124 0.288691
v 0.152988 0.014819 0.312302
v 0.135666 0.049093 -0.137089
v 0.244492 -0.005855 0.131260
v 0.233389 0.016061 -0.043210
v 0.229384 -0.005855 0.216267
v 0.318640 0.466817 -0.086754
v 0.332839 0.485875 0.306322
v 0.170901 0.513489 0.350461
v 0.170901 0.466817 -0.086754
v 0.341801 0.554192 0.131260
v 0.341801 0.526717 0.051423
v 0.341801 0.554192 0.242132
v 0.288858 0.330088 0.333477
v 0.281215 0.265621 -0.142828
v 0.170901 0.265621 -0.142828
v 0.170901 0.306221 0.379461
v 0.312661 0.351187 0.131260
v 0.310010 0.274168 -0.043210
v 0.311274 0.351187 0.305730
v 0.085450 0.629435 0.280503
v 0.060225 0.198263 0.312302
v 0.085450 0.414180 0.382514
v 0.085450 0.599225 -0.016203
v 0.085450 0.196431 -0.154123
v 0.085450 0.334810 -0.131533
v 0.085450 0.661234 0.131260
v 0.085450 0.633760 0.051423
v 0.085450 0.661234 0.242132
v 0.067833 0.049093 -0.137089
v 0.076494 0.014819 0.312302
v 0.085450 0.466817 -0.086754
v 0.085450 0.513489 0.350461
v 0.085450 0.265621 -0.142828
v 0.085450 0.306221 0.379461
v -0.302100 0.555001 -0.016203
v -0.341801 0.584510 0.286863
v -0.233292 0.196431 -0.154123
v -0.208641 0.198263 0.294474
v -0.314483 0.334810 -0.131533
v -0.307089 0.414180 0.341621
v -0.170901 0.573317 -0.016203
v -0.170901 0.196431 -0.154123
v -0.170901 0.602826 0.286863
v -0.120451 0.198263 0.312302
v -0.170901 0.414180 0.382514
v -0.170901 0.334810 -0.131533
v -0.341801 0.609949 0.131260
v -0.216356 0.190626 0.131260
v -0.341801 0.414180 0.131260
v -0.170901 0.628265 0.131260
v -0.170901 0.600791 0.051423
v -0.341801 0.582475 0.051423
v -0.258459 0.190626 -0.043210
v -0.341801 0.414180 -0.043210
v -0.341801 0.609949 0.242132
v -0.214997 0.190626 0.227620
v -0.341801 0.414180 0.305730
v -0.170901 0.628265 0.242132
v -0.207623 0.029846 -0.137089
v -0.192368 0.019124 0.288691
v -0.152988 0.014819 0.312302
v -0.135666 0.049093 -0.137089
v -0.244492 -0.005855 0.131260
v -0.233389 0.016061 -0.043210
v -0.229384 -0.005855 0.216267
v -0.318640 0.466817 -0.086754
v -0.332839 0.485875 0.306322
v -0.170901 0.513489 0.350461
v -0.170901 0.466817 -0.086754
v -0.341801 0.554192 0.131260
v -0.341801 0.526717 0.051423
v -0.341801 0.554192 0.242132
v -0.288858 0.330088 0.333477
v -0.281215 0.265621 -0.142828
v -0.170901 0.265621 -0.142828
v -0.170901 0.306221 0.379461
v -0.312661 0.351187 0.131260
v -0.310010 0.274168 -0.043210
v -0.311274 0.351187 0.305730
v -0.085450 0.629435 0.280503
v -0.060225 0.198263 0.312302
v -0.085450 0.414180 0.382514
v -0.085450 0.599225 -0.016203
v -0.085450 0.196431 -0.154123
v -0.085450 0.334810 -0.131533
v -0.085450 0.661234 0.131260
v -0.085450 0.633760 0.051423
v -0.085450 0.661234 0.242132
v -0.067833 0.049093 -0.137089
v -0.076494 0.014819 0.312302
v -0.085450 0.466817 -0.086754
v -0.085450 0.513489 0.350461
v -0.085450 0.265621 -0.142828
v -0.085450 0.306221 0.379461
vn 0.9953 -0.0798 0.0541
vn -0.0000 0.6247 -0.7808
vn 0.1283 0.9188 -0.3733
vn -0.0289 -0.1080 -0.9937
vn 0.8952 0.0399 0.4438
vn -0.0000 -0.0000 1.0000
vn -0.0000 0.5166 0.8562
vn -0.0000 -0.0283 0.9996
vn -0.0000 0.1611 -0.9869
vn 0.8350 -0.2295 0.5001
vn 0.3677 -0.0263 0.9296
vn 0.2849 0.1605 0.9450
vn 0.5188 -0.0746 0.8516
vn -0.0000 -0.1148 -0.9934
vn 0.3250 0.8423 -0.4301
vn -0.0000 0.5523 -0.8337
vn 0.3600 0.9330 -0.0000
vn 0.9718 -0.2207 0.0826
vn 0.9889 0.1416 -0.0451
vn 0.1066 0.9943 -0.0000
vn 1.0000 -0.0000 -0.0000
vn 0.8489 0.4180 -0.3235
vn 0.9500 -0.1364 -0.2808
vn 0.8921 -0.3923 -0.2242
vn 0.3427 0.8883 -0.3057
vn 0.1008 0.9408 -0.3237
vn 0.0928 0.8655 0.4922
vn 0.2848 0.7381 0.6117
vn 0.9749 0.1396 0.1733
vn 0.9227 0.0975 -0.3730
vn -0.0000 0.3212 -0.9470
vn 0.2748 0.2953 0.9150
vn -0.0000 0.3072 0.9517
vn 0.7163 0.0838 0.6928
vn 0.8575 -0.5143 0.0121
vn 0.8191 -0.5324 -0.2137
vn 0.8336 -0.5144 0.2012
vn 0.1621 -0.5747 0.8021
vn 0.8171 -0.5588 0.1415
vn -0.0000 -0.5282 0.8491
vn 0.2407 0.6238 0.7436
vn -0.0000 0.4702 -0.8825
vn 0.3122 0.8092 -0.4977
vn -0.0000 0.5799 0.8147
vn -1.0000 -0.0000 -0.0000
vn -0.0769 0.5506 -0.8312
vn -0.0966 0.9011 -0.4228
vn 0.0289 -0.1080 -0.9937
vn -0.8952 0.0399 0.4438
vn -0.6788 -0.3290 0.6565
vn -0.2842 -0.1533 0.9464
vn -0.2849 0.1605 0.9450
vn -0.5188 -0.0746 0.8516
vn -0.3250 0.8423 -0.4301
vn -0.1411 0.4655 -0.8737
vn -0.3600 0.9330 -0.0000
vn -0.9718 -0.2207 0.0826
vn -0.9628 -0.1383 0.2323
vn -0.1066 0.9943 -0.0000
vn -0.8489 0.4180 -0.3235
vn -0.9589 -0.1709 -0.2265
vn -0.8921 -0.3923 -0.2242
vn -0.3427 0.8883 -0.3057
vn -0.1008 0.9408 -0.3237
vn -0.0928 0.8655 0.4922
vn -0.2277 0.8464 0.4814
vn -0.9749 0.1396 0.1733
vn -0.9227 0.0975 -0.3730
vn -0.3004 0.3323 0.8941
vn -0.9587 0.1177 0.2591
vn -0.8575 -0.5143 0.0121
vn -0.8191 -0.5324 -0.2137
vn -0.8336 -0.5144 0.2012
vn -0.4014 -0.4758 0.7826
vn -0.8171 -0.5588 0.1415
vn 0.1311 -0.9846 -0.1153
vn -0.1888 0.7561 0.6266
vn -0.1225 0.4040 -0.9065
vn -0.3122 0.8092 -0.4977
vn 0.0769 0.5506 -0.8312
vn 0.0966 0.9011 -0.4228
vn -0.0000 -0.1017 -0.9948
vn 0.9901 -0.0933 0.1048
vn 0.0811 0.4704 0.8787
vn 0.6788 -0.3290 0.6565
vn 0.2842 -0.1533 0.9464
vn 0.0620 0.5788 0.8131
vn 0.1980 0.0351 0.9796
vn 0.2704 0.8919 -0.3624
vn 0.1411 0.4655 -0.8737
vn 0.9076 -0.4199 -0.0000
vn 0.9628 -0.1383 0.2323
vn 0.8624 -0.0000 -0.5063
vn 0.9589 -0.1709 -0.2265
vn 0.9701 -0.2203 -0.1021
vn 0.2277 0.8464 0.4814
vn 0.9973 0.0722 0.0141
vn 0.9454 0.2097 -0.2494
vn 0.3004 0.3323 0.8941
vn 0.9587 0.1177 0.2591
vn 0.8561 -0.5167 0.0068
vn 0.8343 -0.5148 -0.1970
vn 0.8386 -0.5030 0.2093
vn 0.4014 -0.4758 0.7826
vn 0.8011 -0.5543 0.2257
vn 0.1888 0.7561 0.6266
vn 0.1225 0.4040 -0.9065
vn 0.2607 0.8598 -0.4391
vn 0.0967 0.5142 0.8522
vn 0.8999 -0.4361 0.0072
vn -0.9076 -0.4199 -0.0000
vn -0.8999 -0.4361 0.0072
vn -0.9953 -0.0798 0.0541
vn -0.1283 0.9188 -0.3733
vn -0.9901 -0.0933 0.1048
vn -0.0811 0.4704 0.8787
vn -0.8350 -0.2295 0.5001
vn -0.3677 -0.0263 0.9296
vn -0.0620 0.5788 0.8131
vn -0.1980 0.0351 0.9796
vn -0.2704 0.8919 -0.3624
vn -0.9889 0.1416 -0.0451
vn -0.8624 -0.0000 -0.5063
vn -0.9500 -0.1364 -0.2808
vn -0.9701 -0.2203 -0.1021
vn -0.2848 0.7381 0.6117
vn -0.9973 0.0722 0.0141
vn -0.9454 0.2097 -0.2494
vn -0.2748 0.2953 0.9150
vn -0.7163 0.0838 0.6928
vn -0.8561 -0.5167 0.0068
vn -0.8343 -0.5148 -0.1970
vn -0.8386 -0.5030 0.2093
vn -0.1621 -0.5747 0.8021
vn -0.8011 -0.5543 0.2257
vn -0.1504 -0.9883 -0.0267
vn 0.1104 -0.9208 0.3740
vn -0.0000 -0.9838 -0.1794
vn -0.0000 -0.9935 0.1135
vn -0.1311 -0.9846 -0.1153
vn -0.2578 -0.9636 -0.0707
vn -0.0000 -0.9433 -0.3319
vn -0.1393 -0.9874 -0.0753
vn -0.0000 -0.9797 -0.2006
vn 0.1393 -0.9874 -0.0753
vn 0.2578 -0.9636 -0.0707
vn -0.1104 -0.9208 0.3740
vn 0.1504 -0.9883 -0.0267
vn -0.2407 0.6238 0.7436
vn -0.2607 0.8598 -0.4391
vn -0.0967 0.5142 0.8522
vt 0.625000 0.375000
vt 0.750000 0.500000
vt 0.625000 0.875000
vt 0.750000 0.750000
vt 0.500000 0.875000
vt 0.500000 0.375000
vt 0.562500 0.875000
vt 0.562500 0.375000
vt 0.750000 0.625000
vt 0.750000 0.687500
vt 0.750000 0.562500
vt 0.468750 0.375000
vt 0.468750 0.875000
vt 0.593750 0.875000
vt 0.593750 0.375000
vt 0.531250 0.875000
vt 0.531250 0.375000
vt 0.625000 1.000000
vt 0.875000 0.750000
vt 0.625000 0.000000
vt 0.625000 0.250000
vt 0.875000 0.500000
vt 0.500000 0.000000
vt 0.500000 1.000000
vt 0.500000 0.250000
vt 0.562500 0.000000
vt 0.562500 1.000000
vt 0.562500 0.250000
vt 0.812500 0.750000
vt 0.625000 0.937500
vt 0.500000 0.937500
vt 0.812500 0.500000
vt 0.625000 0.312500
vt 0.500000 0.312500
vt 0.562500 0.312500
vt 0.562500 0.937500
vt 0.625000 0.125000
vt 0.875000 0.625000
vt 0.500000 0.125000
vt 0.562500 0.125000
vt 0.812500 0.625000
vt 0.812500 0.687500
vt 0.625000 0.062500
vt 0.875000 0.687500
vt 0.500000 0.062500
vt 0.562500 0.062500
vt 0.875000 0.562500
vt 0.625000 0.187500
vt 0.500000 0.187500
vt 0.562500 0.187500
vt 0.812500 0.562500
vt 0.468750 0.000000
vt 0.468750 1.000000
vt 0.468750 0.250000
vt 0.468750 0.312500
vt 0.468750 0.937500
vt 0.468750 0.125000
vt 0.468750 0.062500
vt 0.468750 0.187500
vt 0.593750 0.000000
vt 0.593750 1.000000
vt 0.593750 0.250000
vt 0.593750 0.312500
vt 0.593750 0.937500
vt 0.593750 0.125000
vt 0.593750 0.062500
vt 0.593750 0.187500
vt 0.531250 0.250000
vt 0.531250 0.000000
vt 0.531250 1.000000
vt 0.531250 0.937500
vt 0.531250 0.312500
vt 0.531250 0.125000
vt 0.531250 0.062500
vt 0.531250 0.187500
vt 0.781250 0.500000
vt 0.625000 0.343750
vt 0.500000 0.343750
vt 0.562500 0.343750
vt 0.625000 0.906250
vt 0.781250 0.750000
vt 0.500000 0.906250
vt 0.562500 0.906250
vt 0.781250 0.625000
vt 0.781250 0.687500
vt 0.781250 0.562500
vt 0.468750 0.906250
vt 0.468750 0.343750
vt 0.593750 0.906250
vt 0.593750 0.343750
vt 0.531250 0.906250
vt 0.531250 0.343750
vt 0.625000 1.000000
vt 0.875000 0.750000
vt 0.625000 0.000000
vt 0.875000 0.500000
vt 0.625000 0.250000
vt 0.500000 0.000000
vt 0.500000 1.000000
vt 0.500000 0.250000
vt 0.562500 0.000000
vt 0.562500 1.000000
vt 0.562500 0.250000
vt 0.812500 0.750000
vt 0.625000 0.937500
vt 0.500000 0.937500
vt 0.812500 0.500000
vt 0.625000 0.312500
vt 0.500000 0.312500
vt 0.562500 0.312500
vt 0.562500 0.937500
vt 0.625000 0.125000
vt 0.875000 0.625000
vt 0.500000 0.125000
vt 0.562500 0.125000
vt 0.812500 0.625000
vt 0.812500 0.687500
vt 0.625000 0.062500
vt 0.875000 0.687500
vt 0.500000 0.062500
vt 0.562500 0.062500
vt 0.625000 0.187500
vt 0.875000 0.562500
vt 0.500000 0.187500
vt 0.562500 0.187500
vt 0.812500 0.562500
vt 0.468750 1.000000
vt 0.468750 0.000000
vt 0.468750 0.250000
vt 0.468750 0.312500
vt 0.468750 0.937500
vt 0.468750 0.125000
vt 0.468750 0.062500
vt 0.468750 0.187500
vt 0.593750 0.000000
vt 0.593750 1.000000
vt 0.593750 0.250000
vt 0.593750 0.312500
vt 0.593750 0.937500
vt 0.593750 0.125000
vt 0.593750 0.062500
vt 0.593750 0.187500
vt 0.531250 0.250000
vt 0.531250 0.000000
vt 0.531250 1.000000
vt 0.531250 0.937500
vt 0.531250 0.312500
vt 0.531250 0.125000
vt 0.531250 0.062500
vt 0.531250 0.187500
vt 0.781250 0.500000
vt 0.625000 0.343750
vt 0.500000 0.343750
vt 0.562500 0.343750
vt 0.625000 0.906250
vt 0.781250 0.750000
vt 0.500000 0.906250
vt 0.562500 0.906250
vt 0.781250 0.625000
vt 0.781250 0.687500
vt 0.781250 0.562500
vt 0.468750 0.906250
vt 0.468750 0.343750
vt 0.593750 0.906250
vt 0.593750 0.343750
vt 0.531250 0.906250
vt 0.531250 0.343750
s 0
f 53/67/1 17/21/1 48/62/1
f 50/64/2 16/18/2 47/61/2
f 32/42/3 16/19/3 22/29/3
f 23/31/4 40/53/4 43/56/4
f 37/49/5 41/54/5 46/59/5
f 62/78/6 10/12/6 71/88/6
f 61/77/7 13/15/7 73/90/7
f 63/79/8 15/17/8 75/92/8
f 27/36/9 55/70/9 56/71/9
f 60/75/10 21/28/10 54/68/10
f 66/83/9 56/71/9 74/91/9
f 54/68/11 26/35/11 57/72/11
f 17/21/12 49/63/12 48/62/12
f 19/25/13 42/55/13 41/54/13
f 65/82/14 43/56/14 70/87/14
f 32/42/15 64/81/15 68/85/15
f 72/89/16 22/30/16 50/64/16
f 39/51/17 67/84/17 69/86/17
f 35/46/18 58/73/18 59/74/18
f 45/58/19 29/39/19 44/57/19
f 36/47/20 31/41/20 39/51/20
f 33/43/21 51/65/21 52/66/21
f 16/20/22 52/66/22 47/60/22
f 40/52/23 34/45/23 45/58/23
f 20/26/24 59/74/24 55/69/24
f 31/41/25 68/85/25 67/84/25
f 28/38/26 32/42/26 31/41/26
f 24/32/27 36/47/27 39/51/27
f 61/76/28 39/51/28 69/86/28
f 29/39/29 46/59/29 44/57/29
f 47/60/30 35/46/30 20/26/30
f 52/66/21 30/40/21 35/46/21
f 72/89/31 27/36/31 66/83/31
f 21/28/32 49/63/32 26/35/32
f 73/90/33 6/8/33 63/79/33
f 50/64/31 20/27/31 27/36/31
f 38/50/34 48/62/34 21/28/34
f 58/73/35 37/49/35 29/39/35
f 55/69/36 34/45/36 18/23/36
f 59/74/37 29/39/37 34/45/37
f 19/25/38 57/72/38 25/34/38
f 74/91/9 23/31/9 65/82/9
f 60/75/39 19/25/39 37/49/39
f 56/71/9 18/24/9 23/31/9
f 62/78/40 15/17/40 4/6/40
f 25/34/40 75/92/40 62/78/40
f 14/16/9 65/82/9 3/5/9
f 49/63/33 63/79/33 26/35/33
f 12/14/31 66/83/31 5/7/31
f 1/2/41 69/86/41 9/11/41
f 67/84/25 8/10/25 7/9/25
f 69/86/17 7/9/17 9/11/17
f 12/14/42 64/80/42 72/89/42
f 68/85/43 2/4/43 8/10/43
f 3/5/14 70/87/14 11/13/14
f 5/7/9 74/91/9 14/16/9
f 26/35/8 75/92/8 57/72/8
f 24/33/44 73/90/44 49/63/44
f 25/34/6 71/88/6 42/55/6
f 53/67/21 38/50/21 30/40/21
f 88/113/45 111/140/45 113/142/45
f 113/142/45 77/97/45 96/122/45
f 110/139/46 76/93/46 82/105/46
f 92/117/47 76/94/47 93/119/47
f 100/127/48 83/106/48 103/131/48
f 101/129/49 97/124/49 106/134/49
f 10/12/6 122/153/6 131/163/6
f 13/15/7 121/152/7 133/165/7
f 15/17/8 123/154/8 135/167/8
f 115/145/9 87/111/9 116/146/9
f 120/150/50 81/103/50 98/125/50
f 116/146/9 126/158/9 134/166/9
f 114/143/51 86/110/51 81/103/51
f 109/138/52 77/97/52 108/137/52
f 102/130/53 79/100/53 101/129/53
f 103/131/14 125/157/14 130/162/14
f 124/156/54 92/117/54 128/160/54
f 132/164/55 82/105/55 124/155/55
f 127/159/56 99/126/56 129/161/56
f 118/148/57 95/121/57 119/149/57
f 105/133/58 89/114/58 94/120/58
f 91/116/59 96/123/59 99/126/59
f 111/140/45 93/118/45 112/141/45
f 112/141/60 76/95/60 107/135/60
f 100/128/61 94/120/61 78/98/61
f 119/149/62 80/101/62 115/144/62
f 128/160/63 91/116/63 127/159/63
f 92/117/64 88/113/64 91/116/64
f 84/107/65 96/123/65 77/96/65
f 121/151/66 99/126/66 84/107/66
f 106/134/67 89/114/67 104/132/67
f 95/121/68 107/135/68 80/101/68
f 90/115/45 112/141/45 95/121/45
f 87/111/31 132/164/31 126/158/31
f 81/103/69 109/138/69 108/137/69
f 6/8/33 133/165/33 123/154/33
f 80/102/31 110/139/31 87/111/31
f 98/125/70 108/137/70 113/142/70
f 97/124/71 118/148/71 89/114/71
f 94/120/72 115/144/72 78/98/72
f 89/114/73 119/149/73 94/120/73
f 79/100/74 117/147/74 114/143/74
f 83/106/9 134/166/9 125/157/9
f 79/100/75 120/150/75 97/124/75
f 78/99/9 116/146/9 83/106/9
f 122/153/40 15/17/40 135/167/40
f 85/109/40 135/167/40 117/147/40
f 125/157/9 14/16/9 3/5/9
f 123/154/33 109/138/33 86/110/33
f 126/158/31 12/14/31 5/7/31
f 104/132/76 105/133/76 130/162/76
f 1/2/77 129/161/77 121/151/77
f 8/10/63 127/159/63 7/9/63
f 7/9/56 129/161/56 9/11/56
f 12/14/78 124/155/78 2/3/78
f 2/4/79 128/160/79 8/10/79
f 130/162/14 3/5/14 11/13/14
f 134/166/9 5/7/9 14/16/9
f 135/167/8 86/110/8 117/147/8
f 133/165/44 84/108/44 109/138/44
f 131/163/6 85/109/6 102/130/6
f 53/67/21 36/48/21 17/21/21
f 50/64/80 22/30/80 16/18/80
f 32/42/81 33/44/81 16/19/81
f 23/31/82 18/24/82 40/53/82
f 37/49/83 19/25/83 41/54/83
f 62/78/6 4/6/6 10/12/6
f 61/77/84 1/1/84 13/15/84
f 63/79/8 6/8/8 15/17/8
f 27/36/9 20/27/9 55/70/9
f 60/75/85 38/50/85 21/28/85
f 66/83/9 27/36/9 56/71/9
f 54/68/86 21/28/86 26/35/86
f 17/21/87 24/33/87 49/63/87
f 19/25/88 25/34/88 42/55/88
f 65/82/14 23/31/14 43/56/14
f 32/42/89 22/29/89 64/81/89
f 72/89/90 64/80/90 22/30/90
f 39/51/17 31/41/17 67/84/17
f 35/46/91 30/40/91 58/73/91
f 45/58/92 34/45/92 29/39/92
f 36/47/20 28/38/20 31/41/20
f 33/43/21 28/37/21 51/65/21
f 16/20/93 33/43/93 52/66/93
f 40/52/94 18/23/94 34/45/94
f 20/26/95 35/46/95 59/74/95
f 31/41/25 32/42/25 68/85/25
f 28/38/26 33/44/26 32/42/26
f 24/32/27 17/22/27 36/47/27
f 61/76/96 24/32/96 39/51/96
f 29/39/97 37/49/97 46/59/97
f 47/60/98 52/66/98 35/46/98
f 52/66/21 51/65/21 30/40/21
f 72/89/31 50/64/31 27/36/31
f 21/28/99 48/62/99 49/63/99
f 73/90/33 13/15/33 6/8/33
f 50/64/31 47/61/31 20/27/31
f 38/50/100 53/67/100 48/62/100
f 58/73/101 60/75/101 37/49/101
f 55/69/102 59/74/102 34/45/102
f 59/74/103 58/73/103 29/39/103
f 19/25/104 54/68/104 57/72/104
f 74/91/9 56/71/9 23/31/9
f 60/75/105 54/68/105 19/25/105
f 56/71/9 55/70/9 18/24/9
f 62/78/40 75/92/40 15/17/40
f 25/34/40 57/72/40 75/92/40
f 14/16/9 74/91/9 65/82/9
f 49/63/33 73/90/33 63/79/33
f 12/14/31 72/89/31 66/83/31
f 1/2/106 61/76/106 69/86/106
f 67/84/25 68/85/25 8/10/25
f 69/86/17 67/84/17 7/9/17
f 12/14/107 2/3/107 64/80/107
f 68/85/108 64/81/108 2/4/108
f 3/5/14 65/82/14 70/87/14
f 5/7/9 66/83/9 74/91/9
f 26/35/8 63/79/8 75/92/8
f 24/33/109 61/77/109 73/90/109
f 25/34/6 62/78/6 71/88/6
f 58/73/91 30/40/91 38/50/91
f 30/40/21 51/65/21 53/67/21
f 58/73/110 38/50/110 60/75/110
f 51/65/21 28/38/21 53/67/21
f 28/38/21 36/48/21 53/67/21
f 111/140/45 90/115/45 113/142/45
f 90/115/111 118/148/111 98/125/111
f 113/142/45 90/115/45 98/125/45
f 118/148/112 120/150/112 98/125/112
f 113/142/45 96/122/45 88/113/45
f 113/142/113 108/137/113 77/97/113
f 110/139/2 107/136/2 76/93/2
f 92/117/114 82/104/114 76/94/114
f 100/127/82 78/99/82 83/106/82
f 101/129/115 79/100/115 97/124/115
f 10/12/6 4/6/6 122/153/6
f 13/15/116 1/1/116 121/152/116
f 15/17/8 6/8/8 123/154/8
f 115/145/9 80/102/9 87/111/9
f 120/150/117 114/143/117 81/103/117
f 116/146/9 87/111/9 126/158/9
f 114/143/118 117/147/118 86/110/118
f 109/138/119 84/108/119 77/97/119
f 102/130/120 85/109/120 79/100/120
f 103/131/14 83/106/14 125/157/14
f 124/156/121 82/104/121 92/117/121
f 132/164/16 110/139/16 82/105/16
f 127/159/56 91/116/56 99/126/56
f 118/148/111 90/115/111 95/121/111
f 105/133/122 104/132/122 89/114/122
f 91/116/59 88/113/59 96/123/59
f 111/140/45 88/112/45 93/118/45
f 112/141/123 93/118/123 76/95/123
f 100/128/124 105/133/124 94/120/124
f 119/149/125 95/121/125 80/101/125
f 128/160/63 92/117/63 91/116/63
f 92/117/64 93/119/64 88/113/64
f 84/107/65 99/126/65 96/123/65
f 121/151/126 129/161/126 99/126/126
f 106/134/127 97/124/127 89/114/127
f 95/121/128 112/141/128 107/135/128
f 90/115/45 111/140/45 112/141/45
f 87/111/31 110/139/31 132/164/31
f 81/103/129 86/110/129 109/138/129
f 6/8/33 13/15/33 133/165/33
f 80/102/31 107/136/31 110/139/31
f 98/125/130 81/103/130 108/137/130
f 97/124/131 120/150/131 118/148/131
f 94/120/132 119/149/132 115/144/132
f 89/114/133 118/148/133 119/149/133
f 79/100/134 85/109/134 117/147/134
f 83/106/9 116/146/9 134/166/9
f 79/100/135 114/143/135 120/150/135
f 78/99/9 115/145/9 116/146/9
f 122/153/40 4/6/40 15/17/40
f 85/109/40 122/153/40 135/167/40
f 125/157/9 134/166/9 14/16/9
f 123/154/33 133/165/33 109/138/33
f 126/158/31 132/164/31 12/14/31
f 44/57/136 46/59/136 71/88/136
f 46/59/137 41/54/137 71/88/137
f 41/54/138 42/55/138 71/88/138
f 71/88/139 10/12/139 44/57/139
f 45/58/140 44/57/140 70/87/140
f 43/56/141 40/53/141 45/58/141
f 70/87/142 43/56/142 45/58/142
f 44/57/143 10/12/143 11/13/143
f 131/163/138 102/130/138 101/129/138
f 44/57/144 11/13/144 70/87/144
f 10/12/139 131/163/139 104/132/139
f 11/13/145 10/12/145 104/132/145
f 100/128/146 103/131/146 105/133/146
f 103/131/142 130/162/142 105/133/142
f 130/162/144 11/13/144 104/132/144
f 131/163/147 101/129/147 106/134/147
f 104/132/148 131/163/148 106/134/148
f 1/2/149 9/11/149 129/161/149
f 8/10/63 128/160/63 127/159/63
f 7/9/56 127/159/56 129/161/56
f 12/14/42 132/164/42 124/155/42
f 2/4/150 124/156/150 128/160/150
f 130/162/14 125/157/14 3/5/14
f 134/166/9 126/158/9 5/7/9
f 135/167/8 123/154/8 86/110/8
f 133/165/151 121/152/151 84/108/151
f 131/163/6 122/153/6 85/109/6
