# Blender 3.5.0
# www.blender.org
mtllib LeftDownArm.mtl
o 立方体.001
v -1.173155 2.903402 0.131260
v -1.219793 2.828468 0.131260
v -1.173155 2.903402 0.242132
v -1.219793 2.828468 0.253811
v -1.219793 2.864604 0.131260
v -1.219793 2.864604 0.242132
v -1.189266 2.790213 0.131260
v -1.189266 2.790213 0.242387
v -0.772818 2.842420 0.131260
v -0.760098 2.912474 0.131260
v -0.728300 2.932193 0.242132
v -0.728300 2.932193 0.131260
v -0.772818 2.842420 0.274488
v -0.760098 2.912474 0.255807
v -0.697773 2.789325 0.131260
v -0.697773 2.789325 0.260998
v -0.996305 2.897019 0.131260
v -0.996305 2.916738 0.242132
v -0.996305 2.837564 0.270764
v -0.965779 2.782349 0.259887
v -0.996305 2.837564 0.131260
v -0.996305 2.916738 0.131260
v -0.996305 2.897019 0.255807
v -0.965779 2.782349 0.131260
v -1.492246 2.872536 0.131260
v -1.538884 2.837670 0.131260
v -1.492246 2.872536 0.242132
v -1.538884 2.833085 0.253811
v -1.538884 2.848565 0.131260
v -1.538884 2.848565 0.242132
v -1.508357 2.799415 0.131260
v -1.508357 2.799415 0.242387
v -1.348812 2.794814 0.131260
v -1.348812 2.794814 0.242387
v -1.379339 2.833069 0.131260
v -1.332700 2.894634 0.242132
v -1.379339 2.869205 0.242132
v -1.379339 2.833069 0.253811
v -1.332700 2.894634 0.131260
v -1.379339 2.869205 0.131260
v -1.269039 2.792513 0.131260
v -1.299566 2.830769 0.131260
v -1.299566 2.866904 0.242132
v -1.299566 2.830769 0.253811
v -1.269039 2.792513 0.242387
v -1.252928 2.905703 0.242132
v -1.252928 2.905703 0.131260
v -1.299566 2.866904 0.131260
v -1.428584 2.797114 0.242387
v -1.412473 2.895476 0.242132
v -1.412473 2.895476 0.131260
v -1.459111 2.871505 0.131260
v -1.428584 2.797114 0.131260
v -1.459111 2.835370 0.131260
v -1.459111 2.871505 0.242132
v -1.459111 2.835370 0.253811
vn -0.0943 0.2429 0.9655
vn -0.0752 0.9972 -0.0000
vn -0.0000 -0.0000 -1.0000
vn -0.0000 -0.0000 1.0000
vn -0.0288 -0.9996 -0.0000
vn -0.0841 -0.2372 0.9678
vn -0.0352 -0.9994 -0.0000
vn -0.0429 0.5693 0.8210
vn -0.0350 0.6070 0.7939
vn 0.0260 -0.9997 -0.0000
vn 0.0023 -0.2432 0.9700
vn -0.0576 0.9983 -0.0000
vn -0.0170 0.2605 0.9653
vn -0.7816 -0.6237 -0.0000
vn -0.4571 0.8894 -0.0000
vn -1.0000 -0.0000 -0.0000
vn -0.0172 0.6022 0.7982
vn -0.2764 0.9611 -0.0000
vn -0.0084 -0.2923 0.9563
vn -0.1374 0.9905 -0.0000
vn 0.0089 0.3075 0.9515
vn 0.0288 0.9996 -0.0000
vn 0.0106 0.9999 -0.0000
vn 0.4944 -0.7973 -0.3461
vn -0.0844 0.3064 0.9481
vn -0.0582 -0.3280 0.9429
vn -0.0736 0.0885 0.9934
vn -0.0373 0.5695 0.8212
vn -0.0120 -0.1996 0.9798
vn -0.0215 0.2439 0.9696
vn -0.7448 -0.6668 -0.0249
vn -0.0881 0.3063 0.9478
vn 0.0090 -0.3140 0.9494
vn 0.2801 0.1995 0.9390
vn 0.5776 0.8163 -0.0000
vn 0.8959 -0.4443 -0.0000
vn 0.9839 -0.1786 -0.0000
vt 0.625000 0.125000
vt 0.875000 0.625000
vt 0.562500 0.125000
vt 0.875000 0.562500
vt 0.625000 0.187500
vt 0.562500 0.187500
vt 0.593750 0.125000
vt 0.593750 0.187500
vt 0.531250 0.125000
vt 0.531250 0.187500
vt 0.562500 0.125000
vt 0.593750 0.125000
vt 0.625000 0.187500
vt 0.875000 0.562500
vt 0.875000 0.625000
vt 0.625000 0.125000
vt 0.562500 0.187500
vt 0.593750 0.187500
vt 0.531250 0.125000
vt 0.531250 0.187500
vt 0.593750 0.125000
vt 0.625000 0.187500
vt 0.875000 0.562500
vt 0.562500 0.187500
vt 0.531250 0.187500
vt 0.562500 0.125000
vt 0.625000 0.125000
vt 0.875000 0.625000
vt 0.593750 0.187500
vt 0.531250 0.125000
vt 0.875000 0.625000
vt 0.625000 0.125000
vt 0.562500 0.125000
vt 0.625000 0.187500
vt 0.875000 0.562500
vt 0.562500 0.187500
vt 0.593750 0.125000
vt 0.593750 0.187500
vt 0.531250 0.125000
vt 0.531250 0.187500
vt 0.531250 0.125000
vt 0.531250 0.187500
vt 0.562500 0.125000
vt 0.875000 0.562500
vt 0.625000 0.187500
vt 0.593750 0.187500
vt 0.562500 0.187500
vt 0.625000 0.125000
vt 0.875000 0.625000
vt 0.593750 0.125000
vt 0.531250 0.125000
vt 0.562500 0.125000
vt 0.593750 0.187500
vt 0.562500 0.187500
vt 0.531250 0.187500
vt 0.625000 0.187500
vt 0.875000 0.562500
vt 0.875000 0.625000
vt 0.625000 0.125000
vt 0.593750 0.125000
vt 0.531250 0.187500
vt 0.875000 0.562500
vt 0.625000 0.187500
vt 0.625000 0.125000
vt 0.875000 0.625000
vt 0.593750 0.125000
vt 0.531250 0.125000
vt 0.562500 0.125000
vt 0.593750 0.187500
vt 0.562500 0.187500
s 0
f 6/8/1 19/24/1 23/29/1
f 1/2/2 18/23/2 22/28/2
f 21/26/3 5/7/3 17/21/3
f 55/69/4 27/34/4 30/38/4
f 54/68/3 31/39/3 26/33/3
f 49/61/5 31/39/5 53/67/5
f 17/21/3 1/1/3 22/27/3
f 7/9/3 21/26/3 24/30/3
f 19/24/6 8/10/6 20/25/6
f 8/10/7 24/30/7 20/25/7
f 3/5/8 23/29/8 18/22/8
f 18/22/9 14/18/9 11/13/9
f 20/25/10 15/19/10 16/20/10
f 13/17/11 20/25/11 16/20/11
f 24/30/3 9/11/3 15/19/3
f 10/12/3 22/27/3 12/16/3
f 9/11/3 17/21/3 10/12/3
f 22/28/12 11/14/12 12/15/12
f 23/29/13 13/17/13 14/18/13
f 32/40/14 26/33/14 31/39/14
f 30/38/15 25/32/15 29/37/15
f 26/33/16 30/38/16 29/37/16
f 56/70/17 30/38/17 28/36/17
f 51/65/18 27/35/18 50/62/18
f 56/70/19 32/40/19 49/61/19
f 52/66/3 25/32/3 51/64/3
f 54/68/3 29/37/3 52/66/3
f 48/60/3 35/43/3 40/50/3
f 48/60/3 39/48/3 47/59/3
f 44/54/19 34/42/19 45/55/19
f 47/58/20 36/44/20 46/57/20
f 43/53/21 38/47/21 44/54/21
f 45/55/5 33/41/5 41/51/5
f 42/52/3 33/41/3 35/43/3
f 43/53/4 36/45/4 37/46/4
f 6/8/4 46/56/4 43/53/4
f 2/3/3 41/51/3 42/52/3
f 8/10/5 41/51/5 7/9/5
f 6/8/21 44/54/21 4/6/21
f 1/2/22 46/57/22 3/4/22
f 4/6/19 45/55/19 8/10/19
f 5/7/3 47/59/3 1/1/3
f 5/7/3 42/52/3 48/60/3
f 40/50/3 54/68/3 52/66/3
f 40/50/3 51/64/3 39/48/3
f 38/47/19 49/61/19 34/42/19
f 39/49/23 50/62/23 36/44/23
f 37/46/21 56/70/21 38/47/21
f 34/42/5 53/67/5 33/41/5
f 35/43/3 53/67/3 54/68/3
f 37/46/4 50/63/4 55/69/4
f 13/17/24 10/12/24 12/16/24
f 6/8/25 4/6/25 19/24/25
f 1/2/2 3/4/2 18/23/2
f 21/26/3 2/3/3 5/7/3
f 55/69/4 50/63/4 27/34/4
f 54/68/3 53/67/3 31/39/3
f 49/61/5 32/40/5 31/39/5
f 17/21/3 5/7/3 1/1/3
f 7/9/3 2/3/3 21/26/3
f 19/24/26 4/6/26 8/10/26
f 8/10/7 7/9/7 24/30/7
f 3/5/27 6/8/27 23/29/27
f 18/22/28 23/29/28 14/18/28
f 20/25/10 24/30/10 15/19/10
f 13/17/29 19/24/29 20/25/29
f 24/30/3 21/26/3 9/11/3
f 10/12/3 17/21/3 22/27/3
f 9/11/3 21/26/3 17/21/3
f 22/28/12 18/23/12 11/14/12
f 23/29/30 19/24/30 13/17/30
f 32/40/31 28/36/31 26/33/31
f 30/38/15 27/34/15 25/32/15
f 26/33/16 28/36/16 30/38/16
f 56/70/32 55/69/32 30/38/32
f 51/65/18 25/31/18 27/35/18
f 56/70/33 28/36/33 32/40/33
f 52/66/3 29/37/3 25/32/3
f 54/68/3 26/33/3 29/37/3
f 48/60/3 42/52/3 35/43/3
f 48/60/3 40/50/3 39/48/3
f 44/54/19 38/47/19 34/42/19
f 47/58/20 39/49/20 36/44/20
f 43/53/21 37/46/21 38/47/21
f 45/55/5 34/42/5 33/41/5
f 42/52/3 41/51/3 33/41/3
f 43/53/4 46/56/4 36/45/4
f 6/8/4 3/5/4 46/56/4
f 2/3/3 7/9/3 41/51/3
f 8/10/5 45/55/5 41/51/5
f 6/8/21 43/53/21 44/54/21
f 1/2/22 47/58/22 46/57/22
f 4/6/19 44/54/19 45/55/19
f 5/7/3 48/60/3 47/59/3
f 5/7/3 2/3/3 42/52/3
f 40/50/3 35/43/3 54/68/3
f 40/50/3 52/66/3 51/64/3
f 38/47/19 56/70/19 49/61/19
f 39/49/23 51/65/23 50/62/23
f 37/46/21 55/69/21 56/70/21
f 34/42/5 49/61/5 53/67/5
f 35/43/3 33/41/3 53/67/3
f 37/46/4 36/45/4 50/63/4
f 11/14/34 14/18/34 13/17/34
f 13/17/35 16/20/35 15/19/35
f 13/17/35 15/19/35 9/11/35
f 12/16/36 11/14/36 13/17/36
f 13/17/37 9/11/37 10/12/37
