# Blender 3.5.0
# www.blender.org
mtllib LeftDownArm.mtl
o 立方体.001
v -1.173155 0.983039 0.131260
v -1.219793 0.908105 0.131260
v -1.173155 0.983039 0.242132
v -1.219793 0.908105 0.253811
v -1.219793 0.944241 0.131260
v -1.219793 0.944241 0.242132
v -1.189266 0.869850 0.131260
v -1.189266 0.869850 0.242387
v -0.996305 0.976655 0.131260
v -0.996305 0.996374 0.242132
v -0.996305 0.917201 0.270764
v -0.965779 0.861986 0.259887
v -0.996305 0.917201 0.131260
v -0.996305 0.996374 0.131260
v -0.996305 0.976655 0.255807
v -0.965779 0.861986 0.131260
v -1.492246 0.952173 0.131260
v -1.538884 0.917307 0.131260
v -1.492246 0.952173 0.242132
v -1.538884 0.912722 0.253811
v -1.538884 0.928202 0.131260
v -1.538884 0.928202 0.242132
v -1.508357 0.879051 0.131260
v -1.508357 0.879051 0.242387
v -1.348812 0.874451 0.131260
v -1.348812 0.874451 0.242387
v -1.379339 0.912706 0.131260
v -1.332700 0.974271 0.242132
v -1.379339 0.948842 0.242132
v -1.379339 0.912706 0.253811
v -1.332700 0.974271 0.131260
v -1.379339 0.948842 0.131260
v -1.269039 0.872150 0.131260
v -1.299566 0.910405 0.131260
v -1.299566 0.946541 0.242132
v -1.299566 0.910405 0.253811
v -1.269039 0.872150 0.242387
v -1.252928 0.985339 0.242132
v -1.252928 0.985339 0.131260
v -1.299566 0.946541 0.131260
v -1.428584 0.876751 0.242387
v -1.412473 0.975113 0.242132
v -1.412473 0.975113 0.131260
v -1.459111 0.951142 0.131260
v -1.428584 0.876751 0.131260
v -1.459111 0.915006 0.131260
v -1.459111 0.951142 0.242132
v -1.459111 0.915006 0.253811
vn -0.0943 0.2429 0.9655
vn -0.0752 0.9972 -0.0000
vn -0.0000 -0.0000 -1.0000
vn -0.0000 -0.0000 1.0000
vn -0.0288 -0.9996 -0.0000
vn -0.0841 -0.2372 0.9678
vn -0.0352 -0.9994 -0.0000
vn -0.0429 0.5693 0.8210
vn 1.0000 -0.0000 -0.0000
vn -0.7816 -0.6237 -0.0000
vn -0.4571 0.8894 -0.0000
vn -1.0000 -0.0000 -0.0000
vn -0.0172 0.6022 0.7982
vn -0.2764 0.9611 -0.0000
vn -0.0084 -0.2923 0.9563
vn -0.1374 0.9905 -0.0000
vn 0.0089 0.3075 0.9515
vn 0.0288 0.9996 -0.0000
vn 0.0106 0.9999 -0.0000
vn -0.0844 0.3064 0.9481
vn -0.0582 -0.3280 0.9429
vn -0.0736 0.0885 0.9934
vn 0.8752 0.4838 -0.0000
vn -0.7448 -0.6668 -0.0249
vn -0.0881 0.3063 0.9478
vn 0.0090 -0.3140 0.9494
vt 0.625000 0.125000
vt 0.875000 0.625000
vt 0.562500 0.125000
vt 0.875000 0.562500
vt 0.625000 0.187500
vt 0.562500 0.187500
vt 0.593750 0.125000
vt 0.593750 0.187500
vt 0.531250 0.125000
vt 0.531250 0.187500
vt 0.593750 0.125000
vt 0.625000 0.187500
vt 0.875000 0.562500
vt 0.562500 0.187500
vt 0.531250 0.187500
vt 0.562500 0.125000
vt 0.875000 0.625000
vt 0.625000 0.125000
vt 0.593750 0.187500
vt 0.531250 0.125000
vt 0.875000 0.625000
vt 0.625000 0.125000
vt 0.562500 0.125000
vt 0.625000 0.187500
vt 0.875000 0.562500
vt 0.562500 0.187500
vt 0.593750 0.125000
vt 0.593750 0.187500
vt 0.531250 0.125000
vt 0.531250 0.187500
vt 0.531250 0.125000
vt 0.531250 0.187500
vt 0.562500 0.125000
vt 0.875000 0.562500
vt 0.625000 0.187500
vt 0.593750 0.187500
vt 0.562500 0.187500
vt 0.625000 0.125000
vt 0.875000 0.625000
vt 0.593750 0.125000
vt 0.531250 0.125000
vt 0.562500 0.125000
vt 0.593750 0.187500
vt 0.562500 0.187500
vt 0.531250 0.187500
vt 0.625000 0.187500
vt 0.875000 0.562500
vt 0.875000 0.625000
vt 0.625000 0.125000
vt 0.593750 0.125000
vt 0.531250 0.187500
vt 0.875000 0.562500
vt 0.625000 0.187500
vt 0.625000 0.125000
vt 0.875000 0.625000
vt 0.593750 0.125000
vt 0.531250 0.125000
vt 0.562500 0.125000
vt 0.593750 0.187500
vt 0.562500 0.187500
s 0
f 6/8/1 11/14/1 15/19/1
f 1/2/2 10/13/2 14/17/2
f 13/16/3 5/7/3 9/11/3
f 47/59/4 19/24/4 22/28/4
f 46/58/3 23/29/3 18/23/3
f 41/51/5 23/29/5 45/57/5
f 9/11/3 1/1/3 14/18/3
f 7/9/3 13/16/3 16/20/3
f 11/14/6 8/10/6 12/15/6
f 8/10/7 16/20/7 12/15/7
f 3/5/8 15/19/8 10/12/8
f 11/14/9 9/11/9 14/18/9
f 24/30/10 18/23/10 23/29/10
f 22/28/11 17/22/11 21/27/11
f 18/23/12 22/28/12 21/27/12
f 48/60/13 22/28/13 20/26/13
f 43/55/14 19/25/14 42/52/14
f 48/60/15 24/30/15 41/51/15
f 44/56/3 17/22/3 43/54/3
f 46/58/3 21/27/3 44/56/3
f 40/50/3 27/33/3 32/40/3
f 40/50/3 31/38/3 39/49/3
f 36/44/15 26/32/15 37/45/15
f 39/48/16 28/34/16 38/47/16
f 35/43/17 30/37/17 36/44/17
f 37/45/5 25/31/5 33/41/5
f 34/42/3 25/31/3 27/33/3
f 35/43/4 28/35/4 29/36/4
f 6/8/4 38/46/4 35/43/4
f 2/3/3 33/41/3 34/42/3
f 8/10/5 33/41/5 7/9/5
f 6/8/17 36/44/17 4/6/17
f 1/2/18 38/47/18 3/4/18
f 4/6/15 37/45/15 8/10/15
f 5/7/3 39/49/3 1/1/3
f 5/7/3 34/42/3 40/50/3
f 32/40/3 46/58/3 44/56/3
f 32/40/3 43/54/3 31/38/3
f 30/37/15 41/51/15 26/32/15
f 31/39/19 42/52/19 28/34/19
f 29/36/17 48/60/17 30/37/17
f 26/32/5 45/57/5 25/31/5
f 27/33/3 45/57/3 46/58/3
f 29/36/4 42/53/4 47/59/4
f 6/8/20 4/6/20 11/14/20
f 1/2/2 3/4/2 10/13/2
f 13/16/3 2/3/3 5/7/3
f 47/59/4 42/53/4 19/24/4
f 46/58/3 45/57/3 23/29/3
f 41/51/5 24/30/5 23/29/5
f 9/11/3 5/7/3 1/1/3
f 7/9/3 2/3/3 13/16/3
f 11/14/21 4/6/21 8/10/21
f 8/10/7 7/9/7 16/20/7
f 3/5/22 6/8/22 15/19/22
f 10/13/9 15/19/9 11/14/9
f 11/14/23 12/15/23 16/20/23
f 11/14/23 16/20/23 13/16/23
f 14/18/9 10/13/9 11/14/9
f 11/14/9 13/16/9 9/11/9
f 24/30/24 20/26/24 18/23/24
f 22/28/11 19/24/11 17/22/11
f 18/23/12 20/26/12 22/28/12
f 48/60/25 47/59/25 22/28/25
f 43/55/14 17/21/14 19/25/14
f 48/60/26 20/26/26 24/30/26
f 44/56/3 21/27/3 17/22/3
f 46/58/3 18/23/3 21/27/3
f 40/50/3 34/42/3 27/33/3
f 40/50/3 32/40/3 31/38/3
f 36/44/15 30/37/15 26/32/15
f 39/48/16 31/39/16 28/34/16
f 35/43/17 29/36/17 30/37/17
f 37/45/5 26/32/5 25/31/5
f 34/42/3 33/41/3 25/31/3
f 35/43/4 38/46/4 28/35/4
f 6/8/4 3/5/4 38/46/4
f 2/3/3 7/9/3 33/41/3
f 8/10/5 37/45/5 33/41/5
f 6/8/17 35/43/17 36/44/17
f 1/2/18 39/48/18 38/47/18
f 4/6/15 36/44/15 37/45/15
f 5/7/3 40/50/3 39/49/3
f 5/7/3 2/3/3 34/42/3
f 32/40/3 27/33/3 46/58/3
f 32/40/3 44/56/3 43/54/3
f 30/37/15 48/60/15 41/51/15
f 31/39/19 43/55/19 42/52/19
f 29/36/17 47/59/17 48/60/17
f 26/32/5 41/51/5 45/57/5
f 27/33/3 25/31/3 45/57/3
f 29/36/4 28/35/4 42/53/4
