# Blender 3.5.0
# www.blender.org
mtllib Neck.mtl
o 円柱
v -0.002157 0.638891 0.205279
v -0.002157 0.876461 0.233016
v -0.016978 0.639050 0.203918
v -0.016978 0.876620 0.231655
v -0.031229 0.639521 0.199888
v -0.031229 0.877090 0.227625
v -0.044362 0.640285 0.193344
v -0.044362 0.877854 0.221081
v -0.055874 0.641313 0.184538
v -0.055874 0.878882 0.212275
v -0.065322 0.642566 0.173807
v -0.065322 0.880135 0.201544
v -0.072342 0.643995 0.161564
v -0.072342 0.881565 0.189301
v -0.076665 0.645546 0.148279
v -0.076665 0.883116 0.176016
v -0.078125 0.647159 0.134464
v -0.078125 0.884728 0.162201
v -0.076665 0.648772 0.120649
v -0.076665 0.886342 0.148386
v -0.072342 0.650323 0.107365
v -0.072342 0.887892 0.135102
v -0.065322 0.651752 0.095122
v -0.065322 0.889322 0.122859
v -0.055874 0.653005 0.084391
v -0.055874 0.890575 0.112128
v -0.044362 0.654034 0.075584
v -0.044362 0.891603 0.103321
v -0.031229 0.654798 0.069040
v -0.031229 0.892367 0.096777
v -0.016978 0.655268 0.065010
v -0.016978 0.892838 0.092747
v -0.002157 0.655427 0.063650
v -0.002157 0.892996 0.091387
v 0.012663 0.655268 0.065010
v 0.012663 0.892838 0.092747
v 0.026914 0.654798 0.069040
v 0.026914 0.892367 0.096777
v 0.040048 0.654034 0.075584
v 0.040048 0.891603 0.103321
v 0.051560 0.653005 0.084391
v 0.051560 0.890575 0.112128
v 0.061007 0.651752 0.095122
v 0.061007 0.889322 0.122859
v 0.068027 0.650323 0.107365
v 0.068027 0.887892 0.135102
v 0.072350 0.648772 0.120649
v 0.072350 0.886342 0.148386
v 0.073810 0.647159 0.134464
v 0.073810 0.884728 0.162201
v 0.072350 0.645546 0.148279
v 0.072350 0.883116 0.176016
v 0.068027 0.643995 0.161564
v 0.068027 0.881565 0.189301
v 0.061007 0.642566 0.173807
v 0.061007 0.880135 0.201544
v 0.051560 0.641313 0.184538
v 0.051560 0.878882 0.212275
v 0.040048 0.640285 0.193344
v 0.040048 0.877854 0.221081
v 0.026914 0.639521 0.199888
v 0.026914 0.877090 0.227625
v 0.012663 0.639050 0.203918
v 0.012663 0.876620 0.231655
vn -0.0920 -0.1155 0.9890
vn -0.2738 -0.1115 0.9553
vn -0.4484 -0.1037 0.8878
vn -0.6102 -0.0919 0.7869
vn -0.7528 -0.0763 0.6538
vn -0.8690 -0.0574 0.4916
vn -0.9515 -0.0357 0.3055
vn -0.9945 -0.0121 0.1037
vn -0.9945 0.0121 -0.1037
vn -0.9515 0.0357 -0.3055
vn -0.8690 0.0574 -0.4916
vn -0.7528 0.0763 -0.6538
vn -0.6102 0.0919 -0.7869
vn -0.4484 0.1037 -0.8878
vn -0.2738 0.1115 -0.9553
vn -0.0920 0.1155 -0.9890
vn 0.0920 0.1155 -0.9890
vn 0.2738 0.1115 -0.9553
vn 0.4484 0.1037 -0.8878
vn 0.6102 0.0919 -0.7869
vn 0.7528 0.0763 -0.6538
vn 0.8690 0.0574 -0.4916
vn 0.9515 0.0357 -0.3055
vn 0.9945 0.0121 -0.1037
vn 0.9945 -0.0121 0.1037
vn 0.9515 -0.0357 0.3055
vn 0.8690 -0.0574 0.4916
vn 0.7528 -0.0763 0.6538
vn 0.6102 -0.0919 0.7869
vn 0.4484 -0.1037 0.8878
vn -0.0000 0.9933 0.1160
vn 0.2738 -0.1115 0.9553
vn 0.0920 -0.1155 0.9890
vn -0.0000 -0.9933 -0.1160
vn 0.0001 -0.9933 -0.1160
vn -0.0001 -0.9933 -0.1160
vt 1.000000 0.500000
vt 0.000000 0.500000
vt 0.750000 0.490000
vt 1.000000 1.000000
vt 0.250000 0.490000
vt 0.000000 1.000000
vt 0.968750 0.500000
vt 0.796822 0.485388
vt 0.968750 1.000000
vt 0.296822 0.485388
vt 0.937500 0.500000
vt 0.841844 0.471731
vt 0.937500 1.000000
vt 0.341844 0.471731
vt 0.906250 0.500000
vt 0.883337 0.449553
vt 0.906250 1.000000
vt 0.383337 0.449553
vt 0.875000 0.500000
vt 0.919706 0.419706
vt 0.875000 1.000000
vt 0.419706 0.419706
vt 0.843750 0.500000
vt 0.949553 0.383337
vt 0.843750 1.000000
vt 0.449553 0.383337
vt 0.812500 0.500000
vt 0.971731 0.341844
vt 0.812500 1.000000
vt 0.471731 0.341844
vt 0.781250 0.500000
vt 0.985388 0.296822
vt 0.781250 1.000000
vt 0.485388 0.296822
vt 0.750000 0.500000
vt 0.990000 0.250000
vt 0.750000 1.000000
vt 0.490000 0.250000
vt 0.718750 0.500000
vt 0.985388 0.203178
vt 0.718750 1.000000
vt 0.485388 0.203178
vt 0.687500 0.500000
vt 0.971731 0.158156
vt 0.687500 1.000000
vt 0.471731 0.158156
vt 0.656250 0.500000
vt 0.949553 0.116663
vt 0.656250 1.000000
vt 0.449553 0.116663
vt 0.625000 0.500000
vt 0.919706 0.080294
vt 0.625000 1.000000
vt 0.419706 0.080294
vt 0.593750 0.500000
vt 0.883337 0.050447
vt 0.593750 1.000000
vt 0.383337 0.050447
vt 0.562500 0.500000
vt 0.841844 0.028269
vt 0.562500 1.000000
vt 0.341844 0.028269
vt 0.531250 0.500000
vt 0.796822 0.014612
vt 0.531250 1.000000
vt 0.296822 0.014612
vt 0.500000 0.500000
vt 0.750000 0.010000
vt 0.500000 1.000000
vt 0.250000 0.010000
vt 0.468750 0.500000
vt 0.703178 0.014612
vt 0.468750 1.000000
vt 0.203178 0.014612
vt 0.437500 0.500000
vt 0.658156 0.028269
vt 0.437500 1.000000
vt 0.158156 0.028269
vt 0.406250 0.500000
vt 0.616663 0.050447
vt 0.406250 1.000000
vt 0.116663 0.050447
vt 0.375000 0.500000
vt 0.580294 0.080294
vt 0.375000 1.000000
vt 0.080294 0.080294
vt 0.343750 0.500000
vt 0.550447 0.116663
vt 0.343750 1.000000
vt 0.050447 0.116663
vt 0.312500 0.500000
vt 0.528269 0.158156
vt 0.312500 1.000000
vt 0.028269 0.158156
vt 0.281250 0.500000
vt 0.514612 0.203178
vt 0.281250 1.000000
vt 0.014612 0.203178
vt 0.250000 0.500000
vt 0.510000 0.250000
vt 0.250000 1.000000
vt 0.010000 0.250000
vt 0.218750 0.500000
vt 0.514612 0.296822
vt 0.218750 1.000000
vt 0.014612 0.296822
vt 0.187500 0.500000
vt 0.528269 0.341844
vt 0.187500 1.000000
vt 0.028269 0.341844
vt 0.156250 0.500000
vt 0.550447 0.383337
vt 0.156250 1.000000
vt 0.050447 0.383337
vt 0.125000 0.500000
vt 0.580294 0.419706
vt 0.125000 1.000000
vt 0.080294 0.419706
vt 0.093750 0.500000
vt 0.616663 0.449553
vt 0.093750 1.000000
vt 0.116663 0.449553
vt 0.062500 0.500000
vt 0.658156 0.471731
vt 0.158156 0.471731
vt 0.062500 1.000000
vt 0.031250 0.500000
vt 0.703178 0.485388
vt 0.203178 0.485388
vt 0.031250 1.000000
s 0
f 2/4/1 3/7/1 1/1/1
f 3/7/2 6/13/2 5/11/2
f 6/13/3 7/15/3 5/11/3
f 7/15/4 10/21/4 9/19/4
f 10/21/5 11/23/5 9/19/5
f 12/25/6 13/27/6 11/23/6
f 13/27/7 16/33/7 15/31/7
f 15/31/8 18/37/8 17/35/8
f 18/37/9 19/39/9 17/35/9
f 19/39/10 22/45/10 21/43/10
f 21/43/11 24/49/11 23/47/11
f 24/49/12 25/51/12 23/47/12
f 26/53/13 27/55/13 25/51/13
f 27/55/14 30/61/14 29/59/14
f 30/61/15 31/63/15 29/59/15
f 31/63/16 34/69/16 33/67/16
f 34/69/17 35/71/17 33/67/17
f 35/71/18 38/77/18 37/75/18
f 38/77/19 39/79/19 37/75/19
f 39/79/20 42/85/20 41/83/20
f 41/83/21 44/89/21 43/87/21
f 44/89/22 45/91/22 43/87/22
f 46/93/23 47/95/23 45/91/23
f 47/95/24 50/101/24 49/99/24
f 50/101/25 51/103/25 49/99/25
f 52/105/26 53/107/26 51/103/26
f 53/107/27 56/113/27 55/111/27
f 55/111/28 58/117/28 57/115/28
f 58/117/29 59/119/29 57/115/29
f 59/119/30 62/126/30 61/123/30
f 10/22/31 8/18/31 26/54/31
f 62/126/32 63/127/32 61/123/32
f 63/127/33 2/6/33 1/2/33
f 59/120/34 61/124/34 39/80/34
f 2/4/1 4/9/1 3/7/1
f 3/7/2 4/9/2 6/13/2
f 6/13/3 8/17/3 7/15/3
f 7/15/4 8/17/4 10/21/4
f 10/21/5 12/25/5 11/23/5
f 12/25/6 14/29/6 13/27/6
f 13/27/7 14/29/7 16/33/7
f 15/31/8 16/33/8 18/37/8
f 18/37/9 20/41/9 19/39/9
f 19/39/10 20/41/10 22/45/10
f 21/43/11 22/45/11 24/49/11
f 24/49/12 26/53/12 25/51/12
f 26/53/13 28/57/13 27/55/13
f 27/55/14 28/57/14 30/61/14
f 30/61/15 32/65/15 31/63/15
f 31/63/16 32/65/16 34/69/16
f 34/69/17 36/73/17 35/71/17
f 35/71/18 36/73/18 38/77/18
f 38/77/19 40/81/19 39/79/19
f 39/79/20 40/81/20 42/85/20
f 41/83/21 42/85/21 44/89/21
f 44/89/22 46/93/22 45/91/22
f 46/93/23 48/97/23 47/95/23
f 47/95/24 48/97/24 50/101/24
f 50/101/25 52/105/25 51/103/25
f 52/105/26 54/109/26 53/107/26
f 53/107/27 54/109/27 56/113/27
f 55/111/28 56/113/28 58/117/28
f 58/117/29 60/121/29 59/119/29
f 59/119/30 60/121/30 62/126/30
f 6/14/31 4/10/31 32/66/31
f 4/10/31 2/5/31 34/70/31
f 2/5/31 64/129/31 36/74/31
f 64/129/31 62/125/31 38/78/31
f 62/125/31 60/122/31 38/78/31
f 60/122/31 58/118/31 40/82/31
f 38/78/31 60/122/31 40/82/31
f 58/118/31 56/114/31 42/86/31
f 56/114/31 54/110/31 44/90/31
f 42/86/31 56/114/31 44/90/31
f 54/110/31 52/106/31 46/94/31
f 52/106/31 50/102/31 48/98/31
f 46/94/31 52/106/31 48/98/31
f 46/94/31 44/90/31 54/110/31
f 42/86/31 40/82/31 58/118/31
f 38/78/31 36/74/31 64/129/31
f 36/74/31 34/70/31 2/5/31
f 34/70/31 32/66/31 4/10/31
f 32/66/31 30/62/31 6/14/31
f 30/62/31 28/58/31 6/14/31
f 28/58/31 26/54/31 8/18/31
f 6/14/31 28/58/31 8/18/31
f 26/54/31 24/50/31 10/22/31
f 24/50/31 22/46/31 12/26/31
f 10/22/31 24/50/31 12/26/31
f 22/46/31 20/42/31 16/34/31
f 20/42/31 18/38/31 16/34/31
f 16/34/31 14/30/31 22/46/31
f 14/30/31 12/26/31 22/46/31
f 62/126/32 64/130/32 63/127/32
f 63/127/33 64/130/33 2/6/33
f 63/128/34 1/3/34 33/68/34
f 1/3/34 3/8/34 31/64/34
f 3/8/34 5/12/34 31/64/34
f 5/12/34 7/16/34 29/60/34
f 31/64/34 5/12/34 29/60/34
f 7/16/34 9/20/34 25/52/34
f 9/20/34 11/24/34 23/48/34
f 11/24/34 13/28/34 23/48/34
f 13/28/34 15/32/34 21/44/34
f 23/48/34 13/28/34 21/44/34
f 15/32/35 17/36/35 19/40/35
f 19/40/36 21/44/36 15/32/36
f 23/48/34 25/52/34 9/20/34
f 25/52/34 27/56/34 7/16/34
f 27/56/34 29/60/34 7/16/34
f 31/64/34 33/68/34 1/3/34
f 33/68/34 35/72/34 63/128/34
f 35/72/34 37/76/34 63/128/34
f 37/76/34 39/80/34 61/124/34
f 63/128/34 37/76/34 61/124/34
f 39/80/34 41/84/34 57/116/34
f 41/84/34 43/88/34 55/112/34
f 43/88/34 45/92/34 55/112/34
f 45/92/34 47/96/34 53/108/34
f 55/112/34 45/92/34 53/108/34
f 47/96/36 49/100/36 51/104/36
f 51/104/34 53/108/34 47/96/34
f 55/112/34 57/116/34 41/84/34
f 57/116/34 59/120/34 39/80/34
