# Blender 3.5.0
# www.blender.org
mtllib RightUpArm.mtl
o 立方体.002
v -0.002092 -0.128738 0.305730
v 0.032619 0.130024 0.131260
v 0.032619 -0.065745 0.131260
v 0.032619 0.130024 0.242132
v 0.032619 -0.065745 0.305730
v 0.032619 0.074267 0.131260
v 0.032619 0.074267 0.242132
v 0.003478 -0.128738 0.131260
v 0.002092 -0.128738 0.305730
v 0.463636 -0.014238 0.131260
v 0.450916 0.055817 0.131260
v 0.419117 0.075535 0.242132
v 0.419117 0.075535 0.131260
v 0.463636 -0.014238 0.274488
v 0.450916 0.055817 0.255807
v 0.388591 -0.067332 0.131260
v 0.388591 -0.067332 0.260998
v 0.248127 -0.005012 0.131260
v 0.248127 0.095360 0.131260
v 0.248127 0.071402 0.242132
v 0.223960 -0.089906 0.131260
v 0.248127 0.071402 0.131260
v 0.248127 0.095360 0.242132
v 0.248127 -0.005012 0.260508
v 0.223960 -0.089906 0.252278
v 0.575379 -0.016665 0.131260
v 0.553120 0.067808 0.131260
v 0.569020 0.048089 0.255807
v 0.522593 -0.070820 0.131260
v 0.569020 0.048089 0.131260
v 0.553120 0.067808 0.242132
v 0.575379 -0.016665 0.272626
v 0.522593 -0.070820 0.260443
vn -1.0000 -0.0000 -0.0000
vn -0.0000 -0.0000 1.0000
vn 0.1358 -0.9907 -0.0000
vn -0.0411 -0.0848 0.9955
vn -0.0000 -0.0000 -1.0000
vn 0.1152 0.9933 -0.0000
vn -0.0475 0.2336 0.9712
vn 0.0743 0.4124 0.9080
vn 0.1588 0.9873 -0.0000
vn 0.2527 -0.1224 0.9598
vn 0.1727 -0.9850 0.0014
vn 0.7161 -0.6980 -0.0000
vn 0.0170 0.2605 0.9653
vn 0.0576 0.9983 -0.0000
vn -0.0023 -0.2432 0.9700
vn -0.0260 -0.9997 -0.0000
vn 0.0350 0.6070 0.7939
vn -0.9076 0.4199 -0.0000
vn -0.8999 0.4361 -0.0072
vn -0.0134 0.5551 0.8317
vn -0.0704 -0.1510 0.9860
vn -0.0521 0.2485 0.9672
vn 0.0031 0.2338 0.9723
vn 0.2463 -0.1628 0.9554
vn 0.1735 -0.9848 -0.0000
vn 0.9952 0.0977 -0.0000
vn 0.8288 0.5127 -0.2242
vn 0.7785 0.6277 -0.0000
vn 0.9875 0.0970 0.1244
vn 0.0216 0.2533 0.9671
vn 0.0112 -0.2299 0.9732
vn 0.0386 0.5903 0.8063
vt 0.625000 0.125000
vt 0.875000 0.625000
vt 0.562500 0.125000
vt 0.625000 0.187500
vt 0.875000 0.562500
vt 0.562500 0.187500
vt 0.593750 0.125000
vt 0.593750 0.187500
vt 0.531250 0.125000
vt 0.531250 0.187500
vt 0.562500 0.125000
vt 0.593750 0.125000
vt 0.625000 0.187500
vt 0.875000 0.562500
vt 0.625000 0.125000
vt 0.875000 0.625000
vt 0.562500 0.187500
vt 0.593750 0.187500
vt 0.531250 0.125000
vt 0.531250 0.187500
vt 0.562500 0.125000
vt 0.875000 0.625000
vt 0.625000 0.125000
vt 0.593750 0.187500
vt 0.531250 0.125000
vt 0.593750 0.125000
vt 0.875000 0.562500
vt 0.625000 0.187500
vt 0.562500 0.187500
vt 0.531250 0.187500
vt 0.562500 0.125000
vt 0.875000 0.625000
vt 0.625000 0.125000
vt 0.593750 0.187500
vt 0.531250 0.125000
vt 0.593750 0.125000
vt 0.875000 0.562500
vt 0.625000 0.187500
vt 0.562500 0.187500
vt 0.531250 0.187500
s 0
f 7/8/1 3/3/1 5/6/1
f 12/13/2 23/28/2 20/24/2
f 25/30/3 21/25/3 16/19/3
f 24/29/4 25/30/4 17/20/4
f 16/19/5 21/25/5 18/21/5
f 22/26/5 19/23/5 13/15/5
f 18/21/5 22/26/5 11/12/5
f 13/16/6 19/22/6 23/27/6
f 15/18/7 20/24/7 24/29/7
f 7/8/8 5/6/8 24/29/8
f 19/22/9 2/2/9 4/5/9
f 18/21/5 3/3/5 6/7/5
f 6/7/5 2/1/5 19/23/5
f 21/25/5 8/9/5 3/3/5
f 5/6/10 9/10/10 25/30/10
f 25/30/11 9/10/11 8/9/11
f 23/28/2 4/4/2 7/8/2
f 33/40/12 26/31/12 32/39/12
f 28/34/13 15/18/13 14/17/13
f 27/32/14 13/16/14 12/14/14
f 10/11/5 11/12/5 30/36/5
f 11/12/5 13/15/5 27/33/5
f 29/35/5 16/19/5 10/11/5
f 14/17/15 17/20/15 33/40/15
f 33/40/16 17/20/16 16/19/16
f 31/38/17 12/13/17 15/18/17
f 8/9/18 5/6/18 3/3/18
f 3/3/1 7/8/1 6/7/1
f 8/9/19 9/10/19 5/6/19
f 6/7/1 7/8/1 2/2/1
f 2/2/1 7/8/1 4/4/1
f 12/13/20 20/24/20 15/18/20
f 25/30/3 16/19/3 17/20/3
f 24/29/21 17/20/21 14/17/21
f 16/19/5 18/21/5 10/11/5
f 22/26/5 13/15/5 11/12/5
f 18/21/5 11/12/5 10/11/5
f 13/16/6 23/27/6 12/14/6
f 15/18/22 24/29/22 14/17/22
f 7/8/23 24/29/23 20/24/23
f 19/22/9 4/5/9 23/27/9
f 18/21/5 6/7/5 22/26/5
f 6/7/5 19/23/5 22/26/5
f 21/25/5 3/3/5 18/21/5
f 5/6/24 25/30/24 24/29/24
f 25/30/25 8/9/25 21/25/25
f 23/28/2 7/8/2 20/24/2
f 32/39/26 26/31/26 28/34/26
f 28/34/27 26/31/27 31/38/27
f 31/38/28 30/36/28 27/32/28
f 26/31/12 33/40/12 29/35/12
f 31/38/29 26/31/29 30/36/29
f 28/34/30 14/17/30 32/39/30
f 27/32/14 12/14/14 31/37/14
f 10/11/5 30/36/5 26/31/5
f 11/12/5 27/33/5 30/36/5
f 29/35/5 10/11/5 26/31/5
f 14/17/31 33/40/31 32/39/31
f 33/40/16 16/19/16 29/35/16
f 31/38/32 15/18/32 28/34/32
