# Blender 3.5.0
# www.blender.org
mtllib RightDownArm.mtl
o 立方体.002
v 0.359793 0.060183 0.131260
v 0.406431 -0.014751 0.131260
v 0.359793 0.060183 0.242132
v 0.406431 -0.014751 0.253811
v 0.406431 0.021385 0.131260
v 0.406431 0.021385 0.242132
v 0.375904 -0.053007 0.131260
v 0.375904 -0.053007 0.242387
v 0.182943 0.053799 0.131260
v 0.182943 0.073518 0.242132
v 0.182943 -0.005655 0.270764
v 0.152417 -0.060870 0.259887
v 0.182943 -0.005655 0.131260
v 0.182943 0.073518 0.131260
v 0.182943 0.053799 0.255807
v 0.152417 -0.060870 0.131260
v 0.678884 0.029317 0.131260
v 0.725522 -0.005549 0.131260
v 0.678884 0.029317 0.242132
v 0.725522 -0.010135 0.253811
v 0.725522 0.005345 0.131260
v 0.725522 0.005345 0.242132
v 0.694995 -0.043805 0.131260
v 0.694995 -0.043805 0.242387
v 0.535450 -0.048406 0.131260
v 0.535450 -0.048406 0.242387
v 0.565976 -0.010150 0.131260
v 0.519338 0.051415 0.242132
v 0.565976 0.025985 0.242132
v 0.565976 -0.010150 0.253811
v 0.519338 0.051415 0.131260
v 0.565976 0.025985 0.131260
v 0.455677 -0.050706 0.131260
v 0.486204 -0.012451 0.131260
v 0.486204 0.023685 0.242132
v 0.486204 -0.012451 0.253811
v 0.455677 -0.050706 0.242387
v 0.439566 0.062483 0.242132
v 0.439566 0.062483 0.131260
v 0.486204 0.023685 0.131260
v 0.615222 -0.046105 0.242387
v 0.599111 0.052257 0.242132
v 0.599111 0.052257 0.131260
v 0.645749 0.028286 0.131260
v 0.615222 -0.046105 0.131260
v 0.645749 -0.007850 0.131260
v 0.645749 0.028286 0.242132
v 0.645749 -0.007850 0.253811
v 0.071200 -0.003228 0.131260
v 0.048940 0.081246 0.131260
v 0.064840 0.061527 0.255807
v 0.018414 -0.057382 0.131260
v 0.064840 0.061527 0.131260
v 0.048940 0.081246 0.242132
v 0.071200 -0.003228 0.272626
v 0.018414 -0.057382 0.260443
vn 0.0943 0.2429 0.9655
vn 0.0752 0.9972 -0.0000
vn -0.0000 -0.0000 -1.0000
vn -0.0000 -0.0000 1.0000
vn 0.0288 -0.9996 -0.0000
vn 0.0841 -0.2372 0.9678
vn 0.0352 -0.9994 -0.0000
vn 0.0429 0.5693 0.8210
vn -0.9875 -0.0970 -0.1244
vn 0.0339 0.5879 0.8083
vn -0.0260 -0.9997 -0.0000
vn -0.0016 -0.2180 0.9760
vn 0.0576 0.9983 -0.0000
vn 0.0165 0.2529 0.9674
vn 0.7816 -0.6237 -0.0000
vn 0.4571 0.8894 -0.0000
vn 1.0000 -0.0000 -0.0000
vn 0.0172 0.6022 0.7982
vn 0.2764 0.9611 -0.0000
vn 0.0084 -0.2923 0.9563
vn 0.1374 0.9905 -0.0000
vn -0.0089 0.3075 0.9515
vn -0.0288 0.9996 -0.0000
vn -0.0106 0.9999 -0.0000
vn 0.0844 0.3064 0.9481
vn 0.0582 -0.3280 0.9429
vn 0.0736 0.0885 0.9934
vn -0.8288 -0.5127 0.2243
vn -0.9952 -0.0977 -0.0000
vn -0.7161 0.6980 -0.0000
vn -0.7785 -0.6277 -0.0000
vn 0.0373 0.5695 0.8212
vn 0.0120 -0.1996 0.9798
vn 0.0215 0.2439 0.9696
vn 0.7448 -0.6668 -0.0249
vn 0.0881 0.3063 0.9478
vn -0.0090 -0.3140 0.9494
vt 0.625000 0.125000
vt 0.875000 0.625000
vt 0.562500 0.125000
vt 0.875000 0.562500
vt 0.625000 0.187500
vt 0.562500 0.187500
vt 0.593750 0.125000
vt 0.593750 0.187500
vt 0.531250 0.125000
vt 0.531250 0.187500
vt 0.593750 0.125000
vt 0.625000 0.187500
vt 0.875000 0.562500
vt 0.562500 0.187500
vt 0.531250 0.187500
vt 0.562500 0.125000
vt 0.625000 0.125000
vt 0.875000 0.625000
vt 0.593750 0.187500
vt 0.531250 0.125000
vt 0.875000 0.625000
vt 0.625000 0.125000
vt 0.562500 0.125000
vt 0.625000 0.187500
vt 0.875000 0.562500
vt 0.562500 0.187500
vt 0.593750 0.125000
vt 0.593750 0.187500
vt 0.531250 0.125000
vt 0.531250 0.187500
vt 0.531250 0.125000
vt 0.531250 0.187500
vt 0.562500 0.125000
vt 0.875000 0.562500
vt 0.625000 0.187500
vt 0.593750 0.187500
vt 0.562500 0.187500
vt 0.625000 0.125000
vt 0.875000 0.625000
vt 0.593750 0.125000
vt 0.531250 0.125000
vt 0.562500 0.125000
vt 0.593750 0.187500
vt 0.562500 0.187500
vt 0.531250 0.187500
vt 0.625000 0.187500
vt 0.875000 0.562500
vt 0.875000 0.625000
vt 0.625000 0.125000
vt 0.593750 0.125000
vt 0.531250 0.187500
vt 0.875000 0.562500
vt 0.625000 0.187500
vt 0.625000 0.125000
vt 0.875000 0.625000
vt 0.593750 0.125000
vt 0.531250 0.125000
vt 0.562500 0.125000
vt 0.593750 0.187500
vt 0.562500 0.187500
vt 0.562500 0.125000
vt 0.625000 0.125000
vt 0.875000 0.625000
vt 0.593750 0.187500
vt 0.531250 0.125000
vt 0.593750 0.125000
vt 0.625000 0.187500
vt 0.875000 0.562500
vt 0.562500 0.187500
vt 0.531250 0.187500
s 0
f 6/8/1 15/19/1 11/14/1
f 1/2/2 14/18/2 10/13/2
f 13/16/3 9/11/3 5/7/3
f 47/59/4 22/28/4 19/24/4
f 46/58/3 18/23/3 23/29/3
f 41/51/5 45/57/5 23/29/5
f 9/11/3 14/17/3 1/1/3
f 7/9/3 16/20/3 13/16/3
f 11/14/6 12/15/6 8/10/6
f 8/10/7 12/15/7 16/20/7
f 3/5/8 10/12/8 15/19/8
f 53/66/9 49/61/9 54/67/9
f 10/12/10 54/67/10 51/64/10
f 12/15/11 56/70/11 52/65/11
f 55/69/12 56/70/12 12/15/12
f 16/20/3 52/65/3 49/61/3
f 53/66/3 50/62/3 14/17/3
f 49/61/3 53/66/3 9/11/3
f 14/18/13 50/63/13 54/68/13
f 15/19/14 51/64/14 55/69/14
f 24/30/15 23/29/15 18/23/15
f 22/28/16 21/27/16 17/22/16
f 18/23/17 21/27/17 22/28/17
f 48/60/18 20/26/18 22/28/18
f 43/55/19 42/52/19 19/25/19
f 48/60/20 41/51/20 24/30/20
f 44/56/3 43/54/3 17/22/3
f 46/58/3 44/56/3 21/27/3
f 40/50/3 32/40/3 27/33/3
f 40/50/3 39/49/3 31/38/3
f 36/44/20 37/45/20 26/32/20
f 39/48/21 38/47/21 28/34/21
f 35/43/22 36/44/22 30/37/22
f 37/45/5 33/41/5 25/31/5
f 34/42/3 27/33/3 25/31/3
f 35/43/4 29/36/4 28/35/4
f 6/8/4 35/43/4 38/46/4
f 2/3/3 34/42/3 33/41/3
f 8/10/5 7/9/5 33/41/5
f 6/8/22 4/6/22 36/44/22
f 1/2/23 3/4/23 38/47/23
f 4/6/20 8/10/20 37/45/20
f 5/7/3 1/1/3 39/49/3
f 5/7/3 40/50/3 34/42/3
f 32/40/3 44/56/3 46/58/3
f 32/40/3 31/38/3 43/54/3
f 30/37/20 26/32/20 41/51/20
f 31/39/24 28/34/24 42/52/24
f 29/36/22 30/37/22 48/60/22
f 26/32/5 25/31/5 45/57/5
f 27/33/3 46/58/3 45/57/3
f 29/36/4 47/59/4 42/53/4
f 6/8/25 11/14/25 4/6/25
f 1/2/2 10/13/2 3/4/2
f 13/16/3 5/7/3 2/3/3
f 47/59/4 19/24/4 42/53/4
f 46/58/3 23/29/3 45/57/3
f 41/51/5 23/29/5 24/30/5
f 9/11/3 1/1/3 5/7/3
f 7/9/3 13/16/3 2/3/3
f 11/14/26 8/10/26 4/6/26
f 8/10/7 16/20/7 7/9/7
f 3/5/27 15/19/27 6/8/27
f 54/67/28 49/61/28 51/64/28
f 51/64/29 49/61/29 55/69/29
f 55/69/30 49/61/30 56/70/30
f 56/70/30 49/61/30 52/65/30
f 50/63/31 53/66/31 54/67/31
f 10/12/32 51/64/32 15/19/32
f 12/15/11 52/65/11 16/20/11
f 55/69/33 12/15/33 11/14/33
f 16/20/3 49/61/3 13/16/3
f 53/66/3 14/17/3 9/11/3
f 49/61/3 9/11/3 13/16/3
f 14/18/13 54/68/13 10/13/13
f 15/19/34 55/69/34 11/14/34
f 24/30/35 18/23/35 20/26/35
f 22/28/16 17/22/16 19/24/16
f 18/23/17 22/28/17 20/26/17
f 48/60/36 22/28/36 47/59/36
f 43/55/19 19/25/19 17/21/19
f 48/60/37 24/30/37 20/26/37
f 44/56/3 17/22/3 21/27/3
f 46/58/3 21/27/3 18/23/3
f 40/50/3 27/33/3 34/42/3
f 40/50/3 31/38/3 32/40/3
f 36/44/20 26/32/20 30/37/20
f 39/48/21 28/34/21 31/39/21
f 35/43/22 30/37/22 29/36/22
f 37/45/5 25/31/5 26/32/5
f 34/42/3 25/31/3 33/41/3
f 35/43/4 28/35/4 38/46/4
f 6/8/4 38/46/4 3/5/4
f 2/3/3 33/41/3 7/9/3
f 8/10/5 33/41/5 37/45/5
f 6/8/22 36/44/22 35/43/22
f 1/2/23 38/47/23 39/48/23
f 4/6/20 37/45/20 36/44/20
f 5/7/3 39/49/3 40/50/3
f 5/7/3 34/42/3 2/3/3
f 32/40/3 46/58/3 27/33/3
f 32/40/3 43/54/3 44/56/3
f 30/37/20 41/51/20 48/60/20
f 31/39/24 42/52/24 43/55/24
f 29/36/22 48/60/22 47/59/22
f 26/32/5 45/57/5 41/51/5
f 27/33/3 45/57/3 25/31/3
f 29/36/4 42/53/4 28/35/4
