# Blender v3.5.0 OBJ File: ''
# www.blender.org
mtllib leftHand.mtl
o 立方体_立方体.002
v 0.882677 -0.072033 -0.613256
v 0.207164 2.267145 1.342016
v 0.310363 -0.984703 0.280886
v -0.365150 1.354475 2.236158
v 0.118731 -0.070175 -1.100339
v -0.501838 2.583903 1.211526
v -0.453583 -0.982845 -0.206197
v -1.083246 1.671255 2.099869
v 0.483491 1.257510 0.488329
v -0.088823 0.344840 1.382471
v -0.764067 0.346482 0.951944
v -0.191752 1.259152 0.057801
v 0.562504 1.776317 1.068460
v -0.009811 0.863647 1.962602
v -0.827386 0.940364 1.517602
v -0.255072 1.853034 0.623460
v -1.977451 1.446728 1.298336
v -1.405137 2.359398 0.404194
v -1.915869 1.012995 0.895032
v -1.343555 1.925665 0.000890
v -1.635341 1.687202 1.762767
v -1.348709 1.000641 1.245445
v -0.776395 1.913311 0.351303
v -1.063027 2.599871 0.868625
v -1.481339 0.548921 0.699472
v -0.909025 1.461590 -0.194670
v -1.134123 0.474215 0.845461
v -0.561809 1.386885 -0.048681
v -1.178111 1.123448 1.479992
v -0.605797 2.036118 0.585849
v -0.782432 2.591887 1.040075
v -1.359293 1.679228 1.931318
v 0.006282 -0.319104 0.765644
v -0.762987 -0.317233 0.275167
v -0.190673 0.595437 -0.618975
v 0.578596 0.593566 -0.128498
v -0.793034 -0.317267 0.255901
v -0.483630 -0.982879 -0.225463
v 0.088684 -0.070209 -1.119605
v -0.220720 0.595403 -0.638242
v 0.339169 -0.984857 0.299167
v 0.911483 -0.072187 -0.594975
v 0.035089 -0.319257 0.783925
v 0.607403 0.593412 -0.110217
v -0.175810 0.619139 -0.642196
v 0.133594 -0.046474 -1.123560
v 0.897540 -0.048331 -0.636477
v 0.593459 0.617268 -0.151719
v -0.205857 0.619105 -0.661462
v 0.103547 -0.046507 -1.142826
v 0.926346 -0.048485 -0.618196
v 0.622266 0.617114 -0.133438
v -0.007094 -0.340435 0.786543
v 0.296986 -1.006034 0.301785
v -0.466960 -1.004177 -0.185298
v -0.776364 -0.338565 0.296066
v -0.806410 -0.338598 0.276799
v -0.497006 -1.004210 -0.204565
v 0.021712 -0.340589 0.804824
v 0.325792 -1.006188 0.320066
v 0.531044 0.925538 0.179915
v -0.041271 0.012868 1.074058
v -0.763527 0.014625 0.613555
v -0.191213 0.927294 -0.280587
v 0.393027 1.153943 0.163130
v 0.541899 1.350654 0.397076
v -0.133344 1.352296 -0.033452
v -0.027810 1.142557 -0.127349
v -0.561907 1.794294 0.368533
v -0.079662 1.882599 0.765913
v -0.503498 1.887438 0.277280
v -0.021254 1.975743 0.674660
vt 0.625000 0.000000
vt 0.562500 0.250000
vt 0.562500 0.000000
vt 0.625000 0.250000
vt 0.562500 0.500000
vt 0.562500 0.500000
vt 0.625000 0.500000
vt 0.562500 0.500000
vt 0.562500 0.750000
vt 0.625000 1.000000
vt 0.562500 1.000000
vt 0.375000 0.500000
vt 0.125000 0.750000
vt 0.125000 0.500000
vt 0.875000 0.500000
vt 0.625000 0.750000
vt 0.625000 0.500000
vt 0.468750 1.000000
vt 0.468750 0.750000
vt 0.468750 1.000000
vt 0.500000 0.500000
vt 0.468750 0.750000
vt 0.468750 0.500000
vt 0.468750 0.250000
vt 0.500000 0.000000
vt 0.468750 0.000000
vt 0.500000 1.000000
vt 0.500000 0.750000
vt 0.500000 0.250000
vt 0.562500 0.750000
vt 0.562500 0.500000
vt 0.562500 0.500000
vt 0.562500 0.750000
vt 0.625000 0.750000
vt 0.625000 0.750000
vt 0.625000 0.500000
vt 0.625000 0.500000
vt 0.562500 0.750000
vt 0.625000 0.750000
vt 0.562500 0.500000
vt 0.562500 0.750000
vt 0.562500 0.750000
vt 0.125000 0.500000
vt 0.375000 0.500000
vt 0.375000 0.500000
vt 0.437500 0.750000
vt 0.437500 0.500000
vt 0.437500 0.500000
vt 0.437500 1.000000
vt 0.437500 0.750000
vt 0.375000 0.750000
vt 0.375000 0.000000
vt 0.437500 0.000000
vt 0.437500 0.000000
vt 0.375000 0.750000
vt 0.437500 0.250000
vt 0.375000 0.250000
vt 0.375000 0.250000
vt 0.437500 0.250000
vt 0.437500 0.000000
vt 0.437500 0.500000
vt 0.125000 0.750000
vt 0.125000 0.750000
vt 0.375000 0.750000
vt 0.437500 1.000000
vt 0.375000 1.000000
vt 0.437500 0.750000
vt 0.375000 1.000000
vt 0.125000 0.750000
vt 0.437500 0.000000
vt 0.437500 0.750000
vt 0.375000 0.750000
vt 0.437500 0.250000
vt 0.375000 0.500000
vt 0.375000 0.250000
vt 0.437500 0.500000
vt 0.437500 0.250000
vt 0.125000 0.500000
vt 0.500000 0.750000
vt 0.500000 0.000000
vt 0.500000 0.000000
vt 0.468750 0.000000
vt 0.500000 1.000000
vt 0.500000 0.750000
vt 0.500000 0.750000
vt 0.500000 1.000000
vt 0.500000 1.000000
vt 0.875000 0.750000
vt 0.375000 0.000000
vt 0.437500 1.000000
vt 0.125000 0.500000
vt 0.500000 0.000000
vn 0.7397 0.1732 0.6502
vn -0.4088 -0.6519 0.6387
vn 0.4088 0.6519 -0.6387
vn 0.3492 -0.7583 -0.5505
vn 0.1408 0.6430 0.7528
vn 0.5422 0.2691 -0.7960
vn -0.9126 0.2911 -0.2870
vn 0.9066 -0.2101 0.3659
vn -0.9094 0.2319 -0.3453
vn 0.9070 -0.3677 0.2053
vn -0.9067 0.2108 -0.3652
vn -0.7302 0.6534 0.1996
vn -0.3239 0.7579 0.5663
vn 0.7345 -0.6504 -0.1937
vn 0.1236 -0.7329 -0.6690
vn -0.6373 -0.2970 -0.7111
vn 0.8588 -0.0381 0.5109
vn -0.2325 -0.6023 -0.7636
vn -0.3239 0.7578 0.5664
vn 0.3464 -0.7583 -0.5523
vn 0.3525 -0.7583 -0.5484
vn -0.3525 0.7583 0.5484
vn -0.3492 0.7583 0.5505
vn -0.8418 -0.0009 -0.5398
vn 0.8443 -0.0045 0.5358
vn -0.3464 0.7583 0.5523
vn 0.4658 0.5461 -0.6963
vn -0.2727 0.6867 -0.6739
vn 0.6549 0.2779 0.7028
vn 0.8237 -0.5648 -0.0493
vn -0.4999 0.7455 0.4410
vn -0.7549 -0.1517 -0.6380
vn -0.4071 -0.6526 0.6390
vn 0.1489 0.6428 0.7514
vn 0.5283 0.1883 -0.8279
vn -0.3243 0.7578 0.5661
vn -0.3244 0.7578 0.5662
vn 0.4630 0.5109 -0.7243
vn -0.7787 -0.1158 -0.6166
vn 0.8066 0.4602 -0.3709
vn 0.4071 0.6526 -0.6390
usemtl None
s off
f 2/1/1 14/2/1 13/3/1
f 4/4/2 15/5/2 14/2/2
f 22/6/2 17/7/2 19/8/2
f 16/9/3 2/10/3 13/11/3
f 7/12/4 1/13/4 3/14/4
f 4/15/5 6/16/5 8/17/5
f 61/18/6 68/19/6 65/20/6
f 11/21/7 64/22/7 63/23/7
f 62/24/2 11/21/2 63/23/2
f 9/25/8 62/24/8 61/26/8
f 16/9/3 9/27/3 12/28/3
f 15/5/9 12/28/9 11/21/9
f 10/29/2 15/5/2 11/21/2
f 13/3/10 10/29/10 9/25/10
f 17/7/11 20/30/11 19/8/11
f 22/6/2 25/31/2 27/32/2
f 23/33/3 18/34/3 24/35/3
f 24/35/12 17/7/12 21/36/12
f 32/37/13 24/35/13 21/36/13
f 30/38/3 24/35/3 31/39/3
f 29/40/14 23/33/14 30/38/14
f 29/40/2 21/36/2 22/6/2
f 27/32/15 26/41/15 28/42/15
f 20/30/16 25/31/16 19/8/16
f 22/6/17 28/42/17 23/33/17
f 23/33/3 26/41/3 20/30/3
f 8/17/2 29/40/2 15/5/2
f 15/5/18 30/38/18 16/9/18
f 6/16/3 30/38/3 31/39/3
f 8/17/19 31/39/19 32/37/19
f 1/13/20 41/43/20 3/14/20
f 7/12/21 58/44/21 38/45/21
f 35/46/22 37/47/22 34/48/22
f 36/49/23 45/50/23 35/46/23
f 37/47/24 39/51/24 38/45/24
f 42/52/25 52/53/25 44/54/25
f 7/12/21 39/51/21 5/55/21
f 43/56/25 60/57/25 41/58/25
f 44/54/25 41/58/25 42/52/25
f 33/59/26 44/54/26 36/60/26
f 38/45/24 57/61/24 37/47/24
f 1/13/20 51/62/20 42/63/20
f 46/64/3 48/65/3 47/66/3
f 46/64/3 49/67/3 45/50/3
f 48/65/3 51/68/3 47/66/3
f 5/55/4 47/69/4 1/13/4
f 39/51/21 46/64/21 5/55/21
f 44/54/26 48/70/26 36/60/26
f 35/46/22 49/67/22 40/71/22
f 40/71/24 50/72/24 39/51/24
f 53/73/2 55/74/2 54/75/2
f 56/76/2 58/44/2 55/74/2
f 53/73/2 60/57/2 59/77/2
f 37/47/22 56/76/22 34/48/22
f 33/59/26 59/77/26 43/56/26
f 34/48/23 53/73/23 33/59/23
f 41/43/20 54/78/20 3/14/20
f 3/14/4 55/74/4 7/12/4
f 61/26/8 33/59/8 36/60/8
f 33/59/2 63/23/2 34/48/2
f 63/23/7 35/46/7 34/48/7
f 64/22/3 36/49/3 35/46/3
f 67/79/27 65/20/27 68/19/27
f 12/28/28 68/19/28 64/22/28
f 66/80/29 70/81/29 9/25/29
f 9/25/30 65/82/30 66/80/30
f 70/83/31 71/84/31 69/85/31
f 67/79/3 72/86/3 66/87/3
f 12/28/32 71/84/32 67/79/32
f 12/28/33 70/83/33 69/85/33
f 2/1/1 4/4/1 14/2/1
f 4/4/2 8/17/2 15/5/2
f 22/6/2 21/36/2 17/7/2
f 16/9/3 6/16/3 2/10/3
f 7/12/4 5/55/4 1/13/4
f 4/15/34 2/88/34 6/16/34
f 61/18/35 64/22/35 68/19/35
f 11/21/7 12/28/7 64/22/7
f 62/24/2 10/29/2 11/21/2
f 9/25/8 10/29/8 62/24/8
f 16/9/3 13/11/3 9/27/3
f 15/5/9 16/9/9 12/28/9
f 10/29/2 14/2/2 15/5/2
f 13/3/10 14/2/10 10/29/10
f 17/7/11 18/34/11 20/30/11
f 22/6/2 19/8/2 25/31/2
f 23/33/3 20/30/3 18/34/3
f 24/35/12 18/34/12 17/7/12
f 32/37/36 31/39/36 24/35/36
f 30/38/3 23/33/3 24/35/3
f 29/40/14 22/6/14 23/33/14
f 29/40/2 32/37/2 21/36/2
f 27/32/15 25/31/15 26/41/15
f 20/30/16 26/41/16 25/31/16
f 22/6/17 27/32/17 28/42/17
f 23/33/3 28/42/3 26/41/3
f 8/17/2 32/37/2 29/40/2
f 15/5/18 29/40/18 30/38/18
f 6/16/3 16/9/3 30/38/3
f 8/17/37 6/16/37 31/39/37
f 1/13/20 42/63/20 41/43/20
f 7/12/21 55/74/21 58/44/21
f 35/46/22 40/71/22 37/47/22
f 36/49/23 48/65/23 45/50/23
f 37/47/24 40/71/24 39/51/24
f 42/52/25 51/89/25 52/53/25
f 7/12/21 38/45/21 39/51/21
f 43/56/25 59/77/25 60/57/25
f 44/54/25 43/56/25 41/58/25
f 33/59/26 43/56/26 44/54/26
f 38/45/24 58/44/24 57/61/24
f 1/13/20 47/69/20 51/62/20
f 46/64/3 45/50/3 48/65/3
f 46/64/3 50/72/3 49/67/3
f 48/65/3 52/90/3 51/68/3
f 5/55/4 46/64/4 47/69/4
f 39/51/21 50/72/21 46/64/21
f 44/54/26 52/53/26 48/70/26
f 35/46/22 45/50/22 49/67/22
f 40/71/24 49/67/24 50/72/24
f 53/73/2 56/76/2 55/74/2
f 56/76/2 57/61/2 58/44/2
f 53/73/2 54/75/2 60/57/2
f 37/47/22 57/61/22 56/76/22
f 33/59/26 53/73/26 59/77/26
f 34/48/23 56/76/23 53/73/23
f 41/43/20 60/91/20 54/78/20
f 3/14/4 54/78/4 55/74/4
f 61/26/8 62/24/8 33/59/8
f 33/59/2 62/24/2 63/23/2
f 63/23/7 64/22/7 35/46/7
f 64/22/3 61/18/3 36/49/3
f 67/79/38 66/87/38 65/20/38
f 12/28/39 67/79/39 68/19/39
f 66/80/29 72/92/29 70/81/29
f 9/25/40 61/26/40 65/82/40
f 70/83/31 72/86/31 71/84/31
f 67/79/41 71/84/41 72/86/41
f 12/28/32 69/85/32 71/84/32
f 12/28/2 9/27/2 70/83/2
