# Blender v3.5.0 OBJ File: ''
# www.blender.org
mtllib rightHand.mtl
o 立方体_立方体.002
v -0.208089 2.267145 1.342016
v -0.563429 1.776317 1.068460
v 0.008886 0.863647 1.962602
v 0.364225 1.354475 2.236158
v 0.826461 0.940364 1.517602
v 1.347784 1.000641 1.245445
v 1.914944 1.012995 0.895032
v 1.976526 1.446728 1.298336
v 0.254147 1.853034 0.623460
v 0.452658 -0.982845 -0.206197
v -0.311288 -0.984703 0.280886
v -0.883602 -0.072033 -0.613256
v 1.082322 1.671255 2.099869
v 0.500913 2.583903 1.211526
v -0.531969 0.925538 0.179915
v -0.629560 1.153943 0.266606
v 0.026885 1.142557 -0.127349
v 0.763142 0.346482 0.951944
v 0.762602 0.014625 0.613555
v 0.190287 0.927294 -0.280587
v 0.040346 0.012868 1.074058
v -0.484416 1.257510 0.488329
v 0.190827 1.259152 0.057801
v 0.087899 0.344840 1.382471
v 1.342630 1.925665 0.000890
v 1.133198 0.474215 0.845461
v 1.480414 0.548921 0.699472
v 0.775469 1.913311 0.351303
v 1.062102 2.599871 0.868624
v 1.404212 2.359398 0.404193
v 1.634416 1.687202 1.762767
v 1.358369 1.679228 1.931318
v 0.604872 2.036118 0.585849
v 0.781507 2.591887 1.040075
v 1.177186 1.123448 1.479991
v 0.560883 1.386885 -0.048681
v 0.908099 1.461590 -0.194670
v -0.340094 -0.984857 0.299168
v 0.482705 -0.982879 -0.225463
v 0.496081 -1.004210 -0.204565
v 0.189747 0.595437 -0.618975
v 0.762062 -0.317233 0.275167
v 0.792109 -0.317267 0.255900
v -0.579522 0.593566 -0.128498
v 0.174885 0.619139 -0.642196
v -0.089610 -0.070209 -1.119606
v -0.912408 -0.072187 -0.594975
v -0.608328 0.593412 -0.110217
v -0.623191 0.617114 -0.133437
v -0.119657 -0.070175 -1.100339
v -0.036014 -0.319257 0.783925
v -0.326717 -1.006188 0.320066
v -0.007207 -0.319103 0.765644
v 0.805485 -0.338598 0.276799
v -0.927271 -0.048485 -0.618195
v -0.134520 -0.046474 -1.123560
v -0.898465 -0.048331 -0.636477
v -0.594385 0.617268 -0.151719
v 0.204931 0.619105 -0.661463
v 0.219794 0.595403 -0.638242
v -0.104473 -0.046507 -1.142826
v 0.006169 -0.340435 0.786543
v -0.297911 -1.006034 0.301785
v 0.466034 -1.004177 -0.185298
v 0.775438 -0.338565 0.296066
v -0.022637 -0.340589 0.804824
v 0.132419 1.352296 -0.033452
v -0.542824 1.350654 0.397076
v 0.078737 1.882599 0.765913
v 0.560981 1.794294 0.368533
v 0.502573 1.887438 0.277279
v 0.020329 1.975743 0.674660
vt 0.625000 0.000000
vt 0.562500 0.000000
vt 0.562500 0.250000
vt 0.625000 0.250000
vt 0.562500 0.500000
vt 0.562500 0.500000
vt 0.562500 0.500000
vt 0.625000 0.500000
vt 0.562500 0.750000
vt 0.562500 1.000000
vt 0.625000 1.000000
vt 0.375000 0.500000
vt 0.125000 0.500000
vt 0.125000 0.750000
vt 0.875000 0.500000
vt 0.625000 0.500000
vt 0.625000 0.750000
vt 0.468750 1.000000
vt 0.468750 1.000000
vt 0.468750 0.750000
vt 0.500000 0.500000
vt 0.468750 0.500000
vt 0.468750 0.750000
vt 0.468750 0.250000
vt 0.500000 0.000000
vt 0.468750 0.000000
vt 0.500000 0.750000
vt 0.500000 1.000000
vt 0.500000 0.250000
vt 0.562500 0.750000
vt 0.562500 0.500000
vt 0.562500 0.500000
vt 0.562500 0.750000
vt 0.625000 0.750000
vt 0.625000 0.750000
vt 0.625000 0.500000
vt 0.625000 0.500000
vt 0.562500 0.750000
vt 0.625000 0.750000
vt 0.562500 0.500000
vt 0.562500 0.750000
vt 0.562500 0.750000
vt 0.125000 0.500000
vt 0.375000 0.500000
vt 0.375000 0.500000
vt 0.437500 0.750000
vt 0.437500 0.500000
vt 0.437500 0.500000
vt 0.437500 1.000000
vt 0.437500 0.750000
vt 0.375000 0.750000
vt 0.375000 0.000000
vt 0.437500 0.000000
vt 0.437500 0.000000
vt 0.375000 0.750000
vt 0.437500 0.250000
vt 0.375000 0.250000
vt 0.375000 0.250000
vt 0.437500 0.250000
vt 0.437500 0.000000
vt 0.437500 0.500000
vt 0.125000 0.750000
vt 0.125000 0.750000
vt 0.375000 0.750000
vt 0.375000 1.000000
vt 0.437500 1.000000
vt 0.437500 0.750000
vt 0.375000 1.000000
vt 0.125000 0.750000
vt 0.437500 0.000000
vt 0.437500 0.750000
vt 0.375000 0.750000
vt 0.437500 0.250000
vt 0.375000 0.250000
vt 0.375000 0.500000
vt 0.437500 0.500000
vt 0.437500 0.250000
vt 0.125000 0.500000
vt 0.500000 0.750000
vt 0.500000 0.000000
vt 0.500000 0.000000
vt 0.468750 0.000000
vt 0.500000 1.000000
vt 0.500000 0.750000
vt 0.500000 0.750000
vt 0.500000 1.000000
vt 0.500000 1.000000
vt 0.875000 0.750000
vt 0.375000 0.000000
vt 0.437500 1.000000
vt 0.125000 0.500000
vt 0.500000 0.000000
vn -0.7397 0.1732 0.6502
vn 0.4088 -0.6519 0.6387
vn -0.4088 0.6519 -0.6387
vn -0.3524 -0.7583 -0.5484
vn -0.3492 -0.7583 -0.5506
vn -0.3465 -0.7583 -0.5522
vn -0.1477 0.6428 0.7516
vn -0.1408 0.6430 0.7528
vn -0.1420 0.6430 0.7526
vn -0.5103 0.1059 -0.8534
vn 0.9126 0.2911 -0.2870
vn -0.9066 -0.2101 0.3659
vn 0.9094 0.2319 -0.3453
vn -0.9070 -0.3677 0.2053
vn 0.9067 0.2108 -0.3652
vn 0.7302 0.6534 0.1996
vn 0.3239 0.7579 0.5663
vn 0.3243 0.7578 0.5661
vn -0.7345 -0.6504 -0.1937
vn -0.1236 -0.7329 -0.6690
vn 0.6373 -0.2970 -0.7111
vn -0.8588 -0.0381 0.5109
vn 0.2325 -0.6023 -0.7636
vn 0.3240 0.7578 0.5663
vn 0.3243 0.7578 0.5662
vn -0.3464 -0.7583 -0.5523
vn -0.3525 -0.7583 -0.5484
vn 0.3528 0.7583 0.5482
vn 0.3497 0.7583 0.5502
vn 0.3525 0.7583 0.5484
vn 0.3488 0.7583 0.5508
vn 0.3492 0.7583 0.5505
vn 0.8418 -0.0010 -0.5398
vn 0.8418 -0.0009 -0.5398
vn -0.8443 -0.0045 0.5358
vn 0.3462 0.7583 0.5524
vn 0.3464 0.7583 0.5523
vn -0.3492 -0.7583 -0.5505
vn -0.3523 -0.7583 -0.5485
vn -0.4264 0.5396 -0.7260
vn 0.2727 0.6867 -0.6739
vn -0.6549 0.2779 0.7028
vn -0.8384 0.0082 0.5450
vn 0.4999 0.7455 0.4410
vn -0.4073 0.6525 -0.6390
vn -0.4080 0.6523 -0.6388
vn 0.7549 -0.1517 -0.6380
vn 0.4073 -0.6525 0.6390
vn 0.4071 -0.6526 0.6390
vn 0.4080 -0.6523 0.6389
vn -0.7397 0.1731 0.6502
vn -0.1489 0.6428 0.7514
vn -0.5283 0.1883 -0.8279
vn 0.3244 0.7578 0.5662
vn -0.4216 0.6229 -0.6589
vn 0.7787 -0.1158 -0.6166
vn -0.6027 -0.4951 0.6258
vn -0.4071 0.6526 -0.6390
usemtl None
s 1
f 1/1/1 2/2/1 3/3/1
f 4/4/2 3/3/2 5/5/2
f 6/6/2 7/7/2 8/8/2
f 9/9/3 2/10/3 1/11/3
f 10/12/4 11/13/5 12/14/6
f 4/15/7 13/16/8 14/17/9
f 15/18/10 16/19/10 17/20/10
f 18/21/11 19/22/11 20/23/11
f 21/24/2 19/22/2 18/21/2
f 22/25/12 15/26/12 21/24/12
f 9/9/3 23/27/3 22/28/3
f 5/5/13 18/21/13 23/27/13
f 24/29/2 18/21/2 5/5/2
f 2/2/14 22/25/14 24/29/14
f 8/8/15 7/7/15 25/30/15
f 6/6/2 26/31/2 27/32/2
f 28/33/3 29/34/3 30/35/3
f 29/34/16 31/36/16 8/8/16
f 32/37/17 31/36/17 29/34/18
f 33/38/3 34/39/3 29/34/3
f 35/40/19 33/38/19 28/33/19
f 35/40/2 6/6/2 31/36/2
f 26/31/20 36/41/20 37/42/20
f 25/30/21 7/7/21 27/32/21
f 6/6/22 28/33/22 36/41/22
f 28/33/3 25/30/3 37/42/3
f 13/16/2 5/5/2 35/40/2
f 5/5/23 9/9/23 33/38/23
f 14/17/3 34/39/3 33/38/3
f 13/16/24 32/37/17 34/39/25
f 12/14/6 11/13/5 38/43/26
f 10/12/4 39/44/27 40/45/27
f 41/46/28 42/47/29 43/48/30
f 44/49/31 41/46/28 45/50/32
f 43/48/33 39/44/34 46/51/34
f 47/52/35 48/53/35 49/54/35
f 10/12/4 50/55/5 46/51/27
f 51/56/35 38/57/35 52/58/35
f 48/53/35 47/52/35 38/57/35
f 53/59/36 44/60/31 48/53/37
f 39/44/34 43/48/33 54/61/33
f 12/14/6 47/62/26 55/63/26
f 56/64/3 57/65/3 58/66/3
f 56/64/3 45/50/3 59/67/3
f 58/66/3 57/65/3 55/68/3
f 50/55/5 12/14/6 57/69/38
f 46/51/27 50/55/5 56/64/39
f 48/53/37 44/60/31 58/70/37
f 41/46/28 60/71/30 59/67/30
f 60/71/34 46/51/34 61/72/34
f 62/73/2 63/74/2 64/75/2
f 65/76/2 64/75/2 40/45/2
f 62/73/2 66/77/2 52/58/2
f 43/48/30 42/47/29 65/76/30
f 53/59/36 51/56/37 66/77/37
f 42/47/29 53/59/36 62/73/32
f 38/43/26 11/13/5 63/78/26
f 11/13/5 10/12/4 64/75/38
f 15/26/12 44/60/12 53/59/12
f 53/59/2 42/47/2 19/22/2
f 19/22/11 42/47/11 41/46/11
f 20/23/3 41/46/3 44/49/3
f 67/79/40 17/20/40 16/19/40
f 23/27/41 20/23/41 17/20/41
f 68/80/42 22/25/42 69/81/42
f 22/25/43 68/80/43 16/82/43
f 69/83/44 70/84/44 71/85/44
f 67/79/45 68/86/3 72/87/46
f 23/27/47 67/79/47 71/85/47
f 23/27/48 70/84/49 69/83/50
f 1/1/1 3/3/1 4/4/51
f 4/4/2 5/5/2 13/16/2
f 6/6/2 8/8/2 31/36/2
f 9/9/3 1/11/3 14/17/3
f 10/12/4 12/14/6 50/55/5
f 4/15/7 14/17/9 1/88/52
f 15/18/53 17/20/53 20/23/53
f 18/21/11 20/23/11 23/27/11
f 21/24/2 18/21/2 24/29/2
f 22/25/12 21/24/12 24/29/12
f 9/9/3 22/28/3 2/10/3
f 5/5/13 23/27/13 9/9/13
f 24/29/2 5/5/2 3/3/2
f 2/2/14 24/29/14 3/3/14
f 8/8/15 25/30/15 30/35/15
f 6/6/2 27/32/2 7/7/2
f 28/33/3 30/35/3 25/30/3
f 29/34/16 8/8/16 30/35/16
f 32/37/17 29/34/18 34/39/25
f 33/38/3 29/34/3 28/33/3
f 35/40/19 28/33/19 6/6/19
f 35/40/2 31/36/2 32/37/2
f 26/31/20 37/42/20 27/32/20
f 25/30/21 27/32/21 37/42/21
f 6/6/22 36/41/22 26/31/22
f 28/33/3 37/42/3 36/41/3
f 13/16/2 35/40/2 32/37/2
f 5/5/23 33/38/23 35/40/23
f 14/17/3 33/38/3 9/9/3
f 13/16/24 34/39/25 14/17/54
f 12/14/6 38/43/26 47/62/26
f 10/12/4 40/45/27 64/75/38
f 41/46/28 43/48/30 60/71/30
f 44/49/31 45/50/32 58/66/37
f 43/48/33 46/51/34 60/71/34
f 47/52/35 49/54/35 55/89/35
f 10/12/4 46/51/27 39/44/27
f 51/56/35 52/58/35 66/77/35
f 48/53/35 38/57/35 51/56/35
f 53/59/36 48/53/37 51/56/37
f 39/44/34 54/61/33 40/45/34
f 12/14/6 55/63/26 57/69/38
f 56/64/3 58/66/3 45/50/3
f 56/64/3 59/67/3 61/72/3
f 58/66/3 55/68/3 49/90/3
f 50/55/5 57/69/38 56/64/39
f 46/51/27 56/64/39 61/72/27
f 48/53/37 58/70/37 49/54/37
f 41/46/28 59/67/30 45/50/32
f 60/71/34 61/72/34 59/67/34
f 62/73/2 64/75/2 65/76/2
f 65/76/2 40/45/2 54/61/2
f 62/73/2 52/58/2 63/74/2
f 43/48/30 65/76/30 54/61/30
f 53/59/36 66/77/37 62/73/32
f 42/47/29 62/73/32 65/76/30
f 38/43/26 63/78/26 52/91/26
f 11/13/5 64/75/38 63/78/26
f 15/26/12 53/59/12 21/24/12
f 53/59/2 19/22/2 21/24/2
f 19/22/11 41/46/11 20/23/11
f 20/23/3 44/49/3 15/18/3
f 67/79/55 16/19/55 68/86/55
f 23/27/56 17/20/56 67/79/56
f 68/80/42 69/81/42 72/92/42
f 22/25/57 16/82/57 15/26/57
f 69/83/44 71/85/44 72/87/44
f 67/79/45 72/87/46 71/85/58
f 23/27/47 71/85/47 70/84/47
f 23/27/48 69/83/50 22/28/2
